Advent Pro-Regular ThinMike.ufo
<glyph name="exclam" format="1">
  <advance width="190"/>
  <unicode hex="0021"/>
  <outline>
    <contour>
      <point x="102" y="120" type="line"/>
      <point x="110" y="692" type="line" smooth="yes"/>
      <point x="110" y="704"/>
      <point x="105" y="710"/>
      <point x="95" y="710" type="curve" smooth="yes"/>
      <point x="87" y="710"/>
      <point x="78" y="704"/>
      <point x="78" y="692" type="curve" smooth="yes"/>
      <point x="87" y="120" type="line"/>
    </contour>
    <contour>
      <point x="102" y="0"/>
      <point x="109" y="7"/>
      <point x="109" y="15" type="curve" smooth="yes"/>
      <point x="109" y="23"/>
      <point x="102" y="30"/>
      <point x="94" y="30" type="curve" smooth="yes"/>
      <point x="86" y="30"/>
      <point x="79" y="23"/>
      <point x="79" y="15" type="curve" smooth="yes"/>
      <point x="79" y="7"/>
      <point x="86" y="0"/>
      <point x="94" y="0" type="curve" smooth="yes"/>
    </contour>
  </outline>
</glyph>
<glyph name="ampersand" format="1">
  <advance width="540"/>
  <unicode hex="0026"/>
  <outline>
    <contour>
      <point x="296" y="-11"/>
      <point x="371" y="26"/>
      <point x="413" y="125" type="curve"/>
      <point x="413" y="50"/>
      <point x="436" y="5"/>
      <point x="482" y="-11" type="curve"/>
      <point x="488" y="7" type="line"/>
      <point x="451" y="20"/>
      <point x="432" y="58"/>
      <point x="432" y="122" type="curve" smooth="yes"/>
      <point x="432" y="464" type="line"/>
      <point x="509" y="481" type="line"/>
      <point x="505" y="500" type="line"/>
      <point x="432" y="484" type="line"/>
      <point x="432" y="609" type="line"/>
      <point x="413" y="609" type="line"/>
      <point x="413" y="480" type="line"/>
      <point x="332" y="460" type="line" smooth="yes"/>
      <point x="312" y="455"/>
      <point x="297" y="453"/>
      <point x="282" y="453" type="curve" smooth="yes"/>
      <point x="207" y="453"/>
      <point x="175" y="505"/>
      <point x="175" y="564" type="curve" smooth="yes"/>
      <point x="175" y="644"/>
      <point x="239" y="692"/>
      <point x="311" y="692" type="curve" smooth="yes"/>
      <point x="330" y="692"/>
      <point x="352" y="689"/>
      <point x="371" y="682" type="curve"/>
      <point x="381" y="699" type="line"/>
      <point x="356" y="706"/>
      <point x="333" y="710"/>
      <point x="311" y="710" type="curve" smooth="yes"/>
      <point x="218" y="710"/>
      <point x="155" y="650"/>
      <point x="155" y="563" type="curve" smooth="yes"/>
      <point x="155" y="495"/>
      <point x="197" y="446"/>
      <point x="262" y="439" type="curve"/>
      <point x="160" y="403"/>
      <point x="35" y="338"/>
      <point x="35" y="183" type="curve" smooth="yes"/>
      <point x="35" y="73"/>
      <point x="104" y="-11"/>
      <point x="218" y="-11" type="curve" smooth="yes"/>
    </contour>
    <contour>
      <point x="134" y="7"/>
      <point x="54" y="70"/>
      <point x="54" y="183" type="curve" smooth="yes"/>
      <point x="54" y="316"/>
      <point x="167" y="397"/>
      <point x="333" y="440" type="curve" smooth="yes"/>
      <point x="354" y="446"/>
      <point x="384" y="454"/>
      <point x="413" y="461" type="curve"/>
      <point x="413" y="204" type="line" smooth="yes"/>
      <point x="413" y="109"/>
      <point x="331" y="7"/>
      <point x="223" y="7" type="curve" smooth="yes"/>
    </contour>
  </outline>
</glyph>
<glyph name="parenleft" format="1">
  <advance width="271"/>
  <unicode hex="0028"/>
  <outline>
    <contour>
      <point x="191" y="-101" type="line"/>
      <point x="121" y="-60"/>
      <point x="97" y="-20"/>
      <point x="97" y="65" type="curve" smooth="yes"/>
      <point x="97" y="636" type="line" smooth="yes"/>
      <point x="97" y="713"/>
      <point x="121" y="762"/>
      <point x="190" y="800" type="curve"/>
      <point x="183" y="817" type="line"/>
      <point x="107" y="773"/>
      <point x="78" y="731"/>
      <point x="78" y="627" type="curve" smooth="yes"/>
      <point x="78" y="71" type="line" smooth="yes"/>
      <point x="78" y="-33"/>
      <point x="107" y="-75"/>
      <point x="183" y="-119" type="curve"/>
    </contour>
  </outline>
</glyph>
<glyph name="comma" format="1">
  <advance width="178"/>
  <unicode hex="002C"/>
  <outline>
    <contour>
      <point x="90" y="-49"/>
      <point x="107" y="-8"/>
      <point x="107" y="12" type="curve" smooth="yes"/>
      <point x="107" y="26"/>
      <point x="100" y="30"/>
      <point x="92" y="30" type="curve" smooth="yes"/>
      <point x="83" y="30"/>
      <point x="76" y="24"/>
      <point x="76" y="14" type="curve" smooth="yes"/>
      <point x="76" y="4"/>
      <point x="83" y="-1"/>
      <point x="92" y="-1" type="curve"/>
      <point x="82" y="-30"/>
      <point x="70" y="-48"/>
      <point x="39" y="-75" type="curve"/>
      <point x="46" y="-84" type="line"/>
    </contour>
  </outline>
</glyph>
<glyph name="one" format="1">
  <advance width="242"/>
  <unicode hex="0031"/>
  <outline>
    <contour>
      <point x="182" y="0" type="line"/>
      <point x="182" y="700" type="line"/>
      <point x="163" y="700" type="line"/>
      <point x="128" y="641"/>
      <point x="68" y="617"/>
      <point x="30" y="609" type="curve"/>
      <point x="35" y="591" type="line"/>
      <point x="85" y="601"/>
      <point x="128" y="621"/>
      <point x="163" y="662" type="curve"/>
      <point x="163" y="0" type="line"/>
    </contour>
  </outline>
</glyph>
<glyph name="three" format="1">
  <advance width="451"/>
  <unicode hex="0033"/>
  <outline>
    <contour>
      <point x="347" y="-12"/>
      <point x="420" y="94"/>
      <point x="420" y="201" type="curve" smooth="yes"/>
      <point x="420" y="307"/>
      <point x="348" y="413"/>
      <point x="207" y="413" type="curve" smooth="yes"/>
      <point x="147" y="413" type="line"/>
      <point x="127" y="394" type="line"/>
      <point x="209" y="394" type="line" smooth="yes"/>
      <point x="317" y="394"/>
      <point x="401" y="316"/>
      <point x="401" y="201" type="curve" smooth="yes"/>
      <point x="401" y="103"/>
      <point x="335" y="7"/>
      <point x="210" y="7" type="curve" smooth="yes"/>
      <point x="142" y="7"/>
      <point x="85" y="35"/>
      <point x="45" y="94" type="curve"/>
      <point x="30" y="83" type="line"/>
      <point x="68" y="24"/>
      <point x="131" y="-12"/>
      <point x="211" y="-12" type="curve" smooth="yes"/>
    </contour>
    <contour>
      <point x="152" y="397" type="line"/>
      <point x="364" y="680" type="line"/>
      <point x="364" y="700" type="line"/>
      <point x="77" y="700" type="line"/>
      <point x="77" y="680" type="line"/>
      <point x="340" y="680" type="line"/>
      <point x="127" y="394" type="line"/>
    </contour>
  </outline>
</glyph>
<glyph name="eight" format="1">
  <advance width="475"/>
  <unicode hex="0038"/>
  <outline>
    <contour>
      <point x="363" y="-12"/>
      <point x="444" y="75"/>
      <point x="444" y="189" type="curve" smooth="yes"/>
      <point x="444" y="284"/>
      <point x="384" y="362"/>
      <point x="293" y="386" type="curve"/>
      <point x="365" y="410"/>
      <point x="406" y="471"/>
      <point x="406" y="545" type="curve" smooth="yes"/>
      <point x="406" y="650"/>
      <point x="328" y="708"/>
      <point x="239" y="708" type="curve" smooth="yes"/>
      <point x="149" y="708"/>
      <point x="71" y="650"/>
      <point x="71" y="545" type="curve" smooth="yes"/>
      <point x="71" y="473"/>
      <point x="116" y="407"/>
      <point x="180" y="386" type="curve"/>
      <point x="87" y="359"/>
      <point x="30" y="283"/>
      <point x="30" y="190" type="curve" smooth="yes"/>
      <point x="30" y="74"/>
      <point x="113" y="-12"/>
      <point x="238" y="-12" type="curve" smooth="yes"/>
    </contour>
    <contour>
      <point x="112" y="7"/>
      <point x="50" y="98"/>
      <point x="50" y="190" type="curve" smooth="yes"/>
      <point x="50" y="282"/>
      <point x="113" y="375"/>
      <point x="236" y="375" type="curve" smooth="yes"/>
      <point x="360" y="375"/>
      <point x="424" y="281"/>
      <point x="424" y="188" type="curve" smooth="yes"/>
      <point x="424" y="97"/>
      <point x="363" y="7"/>
      <point x="237" y="7" type="curve" smooth="yes"/>
    </contour>
    <contour>
      <point x="143" y="392"/>
      <point x="91" y="470"/>
      <point x="91" y="547" type="curve" smooth="yes"/>
      <point x="91" y="619"/>
      <point x="138" y="690"/>
      <point x="238" y="690" type="curve" smooth="yes"/>
      <point x="339" y="690"/>
      <point x="386" y="619"/>
      <point x="386" y="546" type="curve" smooth="yes"/>
      <point x="386" y="470"/>
      <point x="334" y="392"/>
      <point x="239" y="392" type="curve" smooth="yes"/>
    </contour>
  </outline>
</glyph>
<glyph name="nine" format="1">
  <advance width="486"/>
  <unicode hex="0039"/>
  <outline>
    <contour>
      <point x="209" y="0" type="line" smooth="yes"/>
      <point x="362" y="0"/>
      <point x="455" y="94"/>
      <point x="455" y="248" type="curve" smooth="yes"/>
      <point x="455" y="496" type="line" smooth="yes"/>
      <point x="455" y="625"/>
      <point x="360" y="709"/>
      <point x="242" y="709" type="curve" smooth="yes"/>
      <point x="123" y="709"/>
      <point x="30" y="622"/>
      <point x="30" y="496" type="curve" smooth="yes"/>
      <point x="30" y="371"/>
      <point x="123" y="285"/>
      <point x="243" y="285" type="curve" smooth="yes"/>
      <point x="320" y="285"/>
      <point x="396" y="321"/>
      <point x="436" y="410" type="curve"/>
      <point x="436" y="248" type="line" smooth="yes"/>
      <point x="436" y="106"/>
      <point x="352" y="19"/>
      <point x="209" y="19" type="curve" smooth="yes"/>
      <point x="176" y="19" type="line"/>
      <point x="176" y="0" type="line"/>
    </contour>
    <contour>
      <point x="146" y="305"/>
      <point x="49" y="369"/>
      <point x="49" y="496" type="curve" smooth="yes"/>
      <point x="49" y="624"/>
      <point x="146" y="689"/>
      <point x="243" y="689" type="curve" smooth="yes"/>
      <point x="339" y="689"/>
      <point x="436" y="624"/>
      <point x="436" y="496" type="curve" smooth="yes"/>
      <point x="431" y="378"/>
      <point x="354" y="305"/>
      <point x="243" y="305" type="curve" smooth="yes"/>
    </contour>
  </outline>
</glyph>
<glyph name="B" format="1">
  <advance width="550"/>
  <unicode hex="0042"/>
  <outline>
    <contour>
      <point x="308" y="0" type="line" smooth="yes"/>
      <point x="439" y="0"/>
      <point x="511" y="80"/>
      <point x="511" y="209" type="curve" smooth="yes"/>
      <point x="511" y="305"/>
      <point x="469" y="372"/>
      <point x="378" y="403" type="curve"/>
      <point x="430" y="419"/>
      <point x="475" y="465"/>
      <point x="475" y="545" type="curve" smooth="yes"/>
      <point x="475" y="643"/>
      <point x="408" y="700"/>
      <point x="299" y="700" type="curve" smooth="yes"/>
      <point x="78" y="700" type="line"/>
      <point x="78" y="0" type="line"/>
    </contour>
    <contour>
      <point x="97" y="394" type="line"/>
      <point x="309" y="394" type="line" smooth="yes"/>
      <point x="424" y="394"/>
      <point x="492" y="320"/>
      <point x="492" y="205" type="curve" smooth="yes"/>
      <point x="492" y="90"/>
      <point x="426" y="19"/>
      <point x="306" y="19" type="curve" smooth="yes"/>
      <point x="97" y="19" type="line"/>
    </contour>
    <contour>
      <point x="97" y="681" type="line"/>
      <point x="291" y="681" type="line" smooth="yes"/>
      <point x="404" y="681"/>
      <point x="456" y="626"/>
      <point x="456" y="543" type="curve" smooth="yes"/>
      <point x="456" y="469"/>
      <point x="403" y="413"/>
      <point x="335" y="413" type="curve" smooth="yes"/>
      <point x="97" y="413" type="line"/>
    </contour>
    <contour>
      <point x="275" y="694" type="move" name="top"/>
    </contour>
    <contour>
      <point x="275" y="0" type="move" name="bottom"/>
    </contour>
  </outline>
</glyph>
<glyph name="C" format="1">
  <advance width="430"/>
  <unicode hex="0043"/>
  <outline>
    <contour>
      <point x="316" y="-10"/>
      <point x="370" y="1"/>
      <point x="427" y="23" type="curve"/>
      <point x="421" y="41" type="line"/>
      <point x="363" y="18"/>
      <point x="309" y="7"/>
      <point x="261" y="7" type="curve" smooth="yes"/>
      <point x="147" y="7"/>
      <point x="85" y="75"/>
      <point x="85" y="185" type="curve" smooth="yes"/>
      <point x="85" y="513" type="line" smooth="yes"/>
      <point x="85" y="628"/>
      <point x="149" y="691"/>
      <point x="263" y="691" type="curve" smooth="yes"/>
      <point x="304" y="691"/>
      <point x="347" y="681"/>
      <point x="394" y="660" type="curve"/>
      <point x="402" y="677" type="line"/>
      <point x="361" y="699"/>
      <point x="314" y="710"/>
      <point x="260" y="710" type="curve" smooth="yes"/>
      <point x="218" y="710"/>
      <point x="182" y="702"/>
      <point x="153" y="685" type="curve" smooth="yes"/>
      <point x="94" y="649"/>
      <point x="66" y="605"/>
      <point x="66" y="504" type="curve" smooth="yes"/>
      <point x="66" y="183" type="line" smooth="yes"/>
      <point x="66" y="23"/>
      <point x="173" y="-10"/>
      <point x="265" y="-10" type="curve" smooth="yes"/>
    </contour>
    <contour>
      <point x="260" y="694" type="move" name="top"/>
    </contour>
    <contour>
      <point x="254" y="0" type="move" name="bottom"/>
    </contour>
  </outline>
</glyph>
<glyph name="G" format="1">
  <advance width="537"/>
  <unicode hex="0047"/>
  <outline>
    <contour>
      <point x="359" y="-10"/>
      <point x="426" y="23"/>
      <point x="457" y="88" type="curve"/>
      <point x="457" y="0" type="line"/>
      <point x="476" y="0" type="line"/>
      <point x="476" y="300" type="line"/>
      <point x="338" y="300" type="line"/>
      <point x="346" y="281" type="line"/>
      <point x="457" y="281" type="line"/>
      <point x="457" y="182" type="line" smooth="yes"/>
      <point x="457" y="85"/>
      <point x="404" y="9"/>
      <point x="280" y="9" type="curve" smooth="yes"/>
      <point x="157" y="9"/>
      <point x="84" y="83"/>
      <point x="84" y="187" type="curve" smooth="yes"/>
      <point x="84" y="497" type="line" smooth="yes"/>
      <point x="84" y="617"/>
      <point x="140" y="691"/>
      <point x="260" y="691" type="curve" smooth="yes"/>
      <point x="301" y="691"/>
      <point x="345" y="680"/>
      <point x="394" y="659" type="curve"/>
      <point x="401" y="676" type="line"/>
      <point x="358" y="698"/>
      <point x="310" y="709"/>
      <point x="260" y="709" type="curve" smooth="yes"/>
      <point x="133" y="709"/>
      <point x="65" y="631"/>
      <point x="65" y="503" type="curve" smooth="yes"/>
      <point x="65" y="189" type="line" smooth="yes"/>
      <point x="65" y="57"/>
      <point x="159" y="-10"/>
      <point x="277" y="-10" type="curve" smooth="yes"/>
    </contour>
    <contour>
      <point x="269" y="694" type="move" name="top"/>
    </contour>
    <contour>
      <point x="269" y="0" type="move" name="bottom"/>
    </contour>
  </outline>
</glyph>
<glyph name="K" format="1">
  <advance width="479"/>
  <unicode hex="004B"/>
  <outline>
    <contour>
      <point x="98" y="0" type="line"/>
      <point x="98" y="280" type="line"/>
      <point x="195" y="403" type="line"/>
      <point x="455" y="0" type="line"/>
      <point x="476" y="0" type="line"/>
      <point x="207" y="418" type="line"/>
      <point x="424" y="700" type="line"/>
      <point x="402" y="700" type="line"/>
      <point x="98" y="308" type="line"/>
      <point x="98" y="700" type="line"/>
      <point x="79" y="700" type="line"/>
      <point x="79" y="0" type="line"/>
    </contour>
    <contour>
      <point x="240" y="694" type="move" name="top"/>
    </contour>
    <contour>
      <point x="250" y="0" type="move" name="bottom"/>
    </contour>
  </outline>
</glyph>
<glyph name="P" format="1">
  <advance width="551"/>
  <unicode hex="0050"/>
  <outline>
    <contour>
      <point x="97" y="0" type="line"/>
      <point x="97" y="281" type="line"/>
      <point x="311" y="281" type="line" smooth="yes"/>
      <point x="445" y="281"/>
      <point x="512" y="349"/>
      <point x="512" y="486" type="curve" smooth="yes"/>
      <point x="512" y="617"/>
      <point x="451" y="700"/>
      <point x="324" y="700" type="curve" smooth="yes"/>
      <point x="78" y="700" type="line"/>
      <point x="78" y="0" type="line"/>
    </contour>
    <contour>
      <point x="97" y="680" type="line"/>
      <point x="325" y="680" type="line" smooth="yes"/>
      <point x="441" y="680"/>
      <point x="493" y="605"/>
      <point x="493" y="486" type="curve" smooth="yes"/>
      <point x="493" y="362"/>
      <point x="432" y="300"/>
      <point x="309" y="300" type="curve" smooth="yes"/>
      <point x="97" y="300" type="line"/>
    </contour>
    <contour>
      <point x="276" y="694" type="move" name="top"/>
    </contour>
    <contour>
      <point x="88" y="0" type="move" name="bottom"/>
    </contour>
  </outline>
</glyph>
<glyph name="Q" format="1">
  <advance width="549"/>
  <unicode hex="0051"/>
  <outline>
    <contour>
      <point x="428" y="-75" type="line"/>
      <point x="352" y="-74"/>
      <point x="309" y="-53"/>
      <point x="300" y="-11" type="curve"/>
      <point x="412" y="2"/>
      <point x="483" y="66"/>
      <point x="483" y="185" type="curve" smooth="yes"/>
      <point x="483" y="506" type="line" smooth="yes"/>
      <point x="483" y="637"/>
      <point x="407" y="716"/>
      <point x="275" y="716" type="curve" smooth="yes"/>
      <point x="143" y="716"/>
      <point x="63" y="644"/>
      <point x="63" y="507" type="curve" smooth="yes"/>
      <point x="63" y="185" type="line" smooth="yes"/>
      <point x="63" y="52"/>
      <point x="157" y="-11"/>
      <point x="277" y="-11" type="curve"/>
      <point x="295" y="-66"/>
      <point x="345" y="-94"/>
      <point x="428" y="-94" type="curve"/>
    </contour>
    <contour>
      <point x="164" y="8"/>
      <point x="84" y="70"/>
      <point x="84" y="184" type="curve" smooth="yes"/>
      <point x="84" y="516" type="line" smooth="yes"/>
      <point x="84" y="641"/>
      <point x="166" y="696"/>
      <point x="274" y="696" type="curve" smooth="yes"/>
      <point x="383" y="696"/>
      <point x="463" y="635"/>
      <point x="463" y="516" type="curve" smooth="yes"/>
      <point x="463" y="186" type="line" smooth="yes"/>
      <point x="463" y="87"/>
      <point x="401" y="14"/>
      <point x="296" y="9" type="curve"/>
      <point x="293" y="28"/>
      <point x="291" y="52"/>
      <point x="291" y="81" type="curve" smooth="yes"/>
      <point x="290" y="174" type="line"/>
      <point x="270" y="174" type="line"/>
      <point x="270" y="81" type="line" smooth="yes"/>
      <point x="270" y="48"/>
      <point x="271" y="24"/>
      <point x="274" y="8" type="curve"/>
    </contour>
    <contour>
      <point x="275" y="694" type="move" name="top"/>
    </contour>
    <contour>
      <point x="275" y="-82" type="move" name="bottom"/>
    </contour>
  </outline>
</glyph>
<glyph name="R" format="1">
  <advance width="564"/>
  <unicode hex="0052"/>
  <outline>
    <contour>
      <point x="98" y="0" type="line"/>
      <point x="98" y="281" type="line"/>
      <point x="332" y="281" type="line" smooth="yes"/>
      <point x="337" y="281"/>
      <point x="345" y="282"/>
      <point x="357" y="283" type="curve"/>
      <point x="492" y="0" type="line"/>
      <point x="513" y="0" type="line"/>
      <point x="376" y="287" type="line"/>
      <point x="468" y="314"/>
      <point x="512" y="389"/>
      <point x="512" y="486" type="curve" smooth="yes"/>
      <point x="512" y="617"/>
      <point x="449" y="700"/>
      <point x="317" y="700" type="curve" smooth="yes"/>
      <point x="78" y="700" type="line"/>
      <point x="78" y="0" type="line"/>
    </contour>
    <contour>
      <point x="98" y="680" type="line"/>
      <point x="316" y="680" type="line" smooth="yes"/>
      <point x="432" y="680"/>
      <point x="492" y="606"/>
      <point x="492" y="494" type="curve" smooth="yes"/>
      <point x="492" y="382"/>
      <point x="437" y="300"/>
      <point x="316" y="300" type="curve" smooth="yes"/>
      <point x="98" y="300" type="line"/>
    </contour>
    <contour>
      <point x="272" y="694" type="move" name="top"/>
    </contour>
    <contour>
      <point x="282" y="0" type="move" name="bottom"/>
    </contour>
  </outline>
</glyph>
<glyph name="S" format="1">
  <advance width="561"/>
  <unicode hex="0053"/>
  <outline>
    <contour>
      <point x="435" y="-11"/>
      <point x="512" y="66"/>
      <point x="512" y="178" type="curve" smooth="yes"/>
      <point x="512" y="306"/>
      <point x="392" y="346"/>
      <point x="278" y="383" type="curve" smooth="yes"/>
      <point x="174" y="417"/>
      <point x="76" y="449"/>
      <point x="76" y="538" type="curve" smooth="yes"/>
      <point x="76" y="634"/>
      <point x="167" y="691"/>
      <point x="276" y="691" type="curve" smooth="yes"/>
      <point x="331" y="691"/>
      <point x="378" y="681"/>
      <point x="418" y="660" type="curve"/>
      <point x="426" y="680" type="line"/>
      <point x="384" y="700"/>
      <point x="335" y="710"/>
      <point x="280" y="710" type="curve" smooth="yes"/>
      <point x="135" y="710"/>
      <point x="55" y="632"/>
      <point x="55" y="541" type="curve" smooth="yes"/>
      <point x="55" y="435"/>
      <point x="162" y="399"/>
      <point x="271" y="363" type="curve" smooth="yes"/>
      <point x="380" y="327"/>
      <point x="491" y="292"/>
      <point x="491" y="178" type="curve" smooth="yes"/>
      <point x="491" y="62"/>
      <point x="403" y="7"/>
      <point x="276" y="7" type="curve" smooth="yes"/>
      <point x="131" y="7"/>
      <point x="59" y="95"/>
      <point x="59" y="178" type="curve"/>
      <point x="37" y="178" type="line"/>
      <point x="40" y="79"/>
      <point x="125" y="-11"/>
      <point x="280" y="-11" type="curve" smooth="yes"/>
    </contour>
    <contour>
      <point x="273" y="694" type="move" name="top"/>
    </contour>
    <contour>
      <point x="281" y="0" type="move" name="bottom"/>
    </contour>
  </outline>
</glyph>
<glyph name="U" format="1">
  <advance width="566"/>
  <unicode hex="0055"/>
  <outline>
    <contour>
      <point x="400" y="-7"/>
      <point x="495" y="52"/>
      <point x="495" y="186" type="curve" smooth="yes"/>
      <point x="495" y="701" type="line"/>
      <point x="476" y="701" type="line"/>
      <point x="476" y="184" type="line" smooth="yes"/>
      <point x="476" y="64"/>
      <point x="387" y="12"/>
      <point x="287" y="12" type="curve" smooth="yes"/>
      <point x="186" y="12"/>
      <point x="93" y="63"/>
      <point x="93" y="184" type="curve" smooth="yes"/>
      <point x="93" y="701" type="line"/>
      <point x="74" y="701" type="line"/>
      <point x="74" y="186" type="line" smooth="yes"/>
      <point x="74" y="52"/>
      <point x="169" y="-7"/>
      <point x="285" y="-7" type="curve" smooth="yes"/>
    </contour>
    <contour>
      <point x="322" y="0" type="move" name="ogonek"/>
    </contour>
    <contour>
      <point x="287" y="694" type="move" name="top"/>
    </contour>
    <contour>
      <point x="546" y="700" type="move" name="topright"/>
    </contour>
    <contour>
      <point x="287" y="0" type="move" name="bottom"/>
    </contour>
  </outline>
</glyph>
<glyph name="Y" format="1">
  <advance width="548"/>
  <unicode hex="0059"/>
  <outline>
    <contour>
      <point x="468" y="11"/>
      <point x="503" y="63"/>
      <point x="503" y="152" type="curve" smooth="yes"/>
      <point x="503" y="700" type="line"/>
      <point x="484" y="700" type="line"/>
      <point x="484" y="405" type="line"/>
      <point x="472" y="325"/>
      <point x="396" y="264"/>
      <point x="289" y="264" type="curve" smooth="yes"/>
      <point x="148" y="264"/>
      <point x="79" y="334"/>
      <point x="79" y="458" type="curve" smooth="yes"/>
      <point x="79" y="700" type="line"/>
      <point x="60" y="700" type="line"/>
      <point x="60" y="453" type="line" smooth="yes"/>
      <point x="60" y="316"/>
      <point x="148" y="245"/>
      <point x="289" y="245" type="curve" smooth="yes"/>
      <point x="357" y="245"/>
      <point x="444" y="271"/>
      <point x="484" y="348" type="curve"/>
      <point x="484" y="152" type="line" smooth="yes"/>
      <point x="484" y="74"/>
      <point x="455" y="24"/>
      <point x="393" y="11" type="curve"/>
      <point x="399" y="-7" type="line"/>
    </contour>
    <contour>
      <point x="284" y="694" type="move" name="top"/>
    </contour>
    <contour>
      <point x="461" y="0" type="move" name="bottom"/>
    </contour>
    <contour>
      <point x="32" y="700" type="move" name="topleft"/>
    </contour>
  </outline>
</glyph>
<glyph name="a" format="1">
  <advance width="458"/>
  <unicode hex="0061"/>
  <outline>
    <contour>
      <point x="298" y="-10"/>
      <point x="354" y="-7"/>
      <point x="422" y="0" type="curve"/>
      <point x="422" y="337" type="line" smooth="yes"/>
      <point x="422" y="453"/>
      <point x="363" y="509"/>
      <point x="214" y="509" type="curve"/>
      <point x="212" y="491" type="line"/>
      <point x="327" y="491"/>
      <point x="403" y="456"/>
      <point x="403" y="343" type="curve"/>
      <point x="345" y="383"/>
      <point x="274" y="402"/>
      <point x="205" y="402" type="curve" smooth="yes"/>
      <point x="96" y="402"/>
      <point x="37" y="351"/>
      <point x="37" y="252" type="curve" smooth="yes"/>
      <point x="37" y="169" type="line" smooth="yes"/>
      <point x="37" y="50"/>
      <point x="109" y="-10"/>
      <point x="260" y="-10" type="curve" smooth="yes"/>
    </contour>
    <contour>
      <point x="145" y="7"/>
      <point x="56" y="45"/>
      <point x="56" y="168" type="curve" smooth="yes"/>
      <point x="56" y="249" type="line" smooth="yes"/>
      <point x="56" y="333"/>
      <point x="101" y="384"/>
      <point x="203" y="384" type="curve" smooth="yes"/>
      <point x="267" y="384"/>
      <point x="347" y="363"/>
      <point x="403" y="323" type="curve"/>
      <point x="403" y="16" type="line"/>
      <point x="348" y="10"/>
      <point x="298" y="7"/>
      <point x="260" y="7" type="curve" smooth="yes"/>
    </contour>
    <contour>
      <point x="422" y="0" type="move" name="ogonek"/>
    </contour>
    <contour>
      <point x="233" y="0" type="move" name="bottom"/>
    </contour>
    <contour>
      <point x="232" y="501" type="move" name="top"/>
    </contour>
  </outline>
</glyph>
<glyph name="b" format="1">
  <advance width="486"/>
  <unicode hex="0062"/>
  <outline>
    <contour>
      <point x="361" y="-12"/>
      <point x="447" y="39"/>
      <point x="447" y="157" type="curve" smooth="yes"/>
      <point x="447" y="346" type="line" smooth="yes"/>
      <point x="447" y="466"/>
      <point x="363" y="509"/>
      <point x="251" y="509" type="curve" smooth="yes"/>
      <point x="193" y="509"/>
      <point x="143" y="498"/>
      <point x="97" y="477" type="curve"/>
      <point x="97" y="700" type="line"/>
      <point x="78" y="700" type="line"/>
      <point x="78" y="0" type="line"/>
      <point x="133" y="-8"/>
      <point x="184" y="-12"/>
      <point x="221" y="-12" type="curve" smooth="yes"/>
    </contour>
    <contour>
      <point x="181" y="7"/>
      <point x="140" y="10"/>
      <point x="97" y="17" type="curve"/>
      <point x="97" y="457" type="line"/>
      <point x="142" y="480"/>
      <point x="195" y="491"/>
      <point x="251" y="491" type="curve" smooth="yes"/>
      <point x="364" y="491"/>
      <point x="428" y="442"/>
      <point x="428" y="343" type="curve" smooth="yes"/>
      <point x="428" y="156" type="line" smooth="yes"/>
      <point x="428" y="57"/>
      <point x="359" y="7"/>
      <point x="220" y="7" type="curve" smooth="yes"/>
    </contour>
    <contour>
      <point x="88" y="694" type="move" name="top"/>
    </contour>
    <contour>
      <point x="243" y="0" type="move" name="bottom"/>
    </contour>
  </outline>
</glyph>
<glyph name="e" format="1">
  <advance width="434"/>
  <unicode hex="0065"/>
  <outline>
    <contour>
      <point x="265" y="-12"/>
      <point x="319" y="4"/>
      <point x="370" y="35" type="curve"/>
      <point x="361" y="50" type="line"/>
      <point x="304" y="18"/>
      <point x="250" y="4"/>
      <point x="202" y="4" type="curve" smooth="yes"/>
      <point x="121" y="4"/>
      <point x="54" y="44"/>
      <point x="54" y="132" type="curve" smooth="yes"/>
      <point x="54" y="230" type="line"/>
      <point x="395" y="247" type="line"/>
      <point x="395" y="342" type="line" smooth="yes"/>
      <point x="395" y="447"/>
      <point x="330" y="510"/>
      <point x="219" y="510" type="curve" smooth="yes"/>
      <point x="108" y="510"/>
      <point x="35" y="447"/>
      <point x="35" y="339" type="curve" smooth="yes"/>
      <point x="35" y="134" type="line" smooth="yes"/>
      <point x="35" y="37"/>
      <point x="93" y="-12"/>
      <point x="203" y="-12" type="curve" smooth="yes"/>
    </contour>
    <contour>
      <point x="54" y="340" type="line" smooth="yes"/>
      <point x="54" y="444"/>
      <point x="129" y="491"/>
      <point x="217" y="491" type="curve" smooth="yes"/>
      <point x="305" y="491"/>
      <point x="376" y="448"/>
      <point x="376" y="343" type="curve" smooth="yes"/>
      <point x="376" y="266" type="line"/>
      <point x="54" y="248" type="line"/>
    </contour>
    <contour>
      <point x="254" y="0" type="move" name="ogonek"/>
    </contour>
    <contour>
      <point x="217" y="0" type="move" name="bottom"/>
    </contour>
    <contour>
      <point x="219" y="501" type="move" name="top"/>
    </contour>
  </outline>
</glyph>
<glyph name="f" format="1">
  <advance width="300"/>
  <unicode hex="0066"/>
  <outline>
    <contour>
      <point x="97" y="0" type="line"/>
      <point x="97" y="482" type="line"/>
      <point x="240" y="482" type="line"/>
      <point x="248" y="501" type="line"/>
      <point x="97" y="501" type="line"/>
      <point x="97" y="549" type="line" smooth="yes"/>
      <point x="97" y="643"/>
      <point x="152" y="692"/>
      <point x="230" y="692" type="curve" smooth="yes"/>
      <point x="241" y="692"/>
      <point x="250" y="691"/>
      <point x="258" y="690" type="curve"/>
      <point x="261" y="707" type="line"/>
      <point x="250" y="710"/>
      <point x="238" y="711"/>
      <point x="226" y="711" type="curve" smooth="yes"/>
      <point x="147" y="711"/>
      <point x="78" y="661"/>
      <point x="78" y="549" type="curve" smooth="yes"/>
      <point x="78" y="0" type="line"/>
    </contour>
    <contour>
      <point x="171" y="694" type="move" name="top"/>
    </contour>
    <contour>
      <point x="88" y="0" type="move" name="bottom"/>
    </contour>
  </outline>
</glyph>
<glyph name="g" format="1">
  <advance width="448"/>
  <unicode hex="0067"/>
  <outline>
    <contour>
      <point x="383" y="-186"/>
      <point x="414" y="-144"/>
      <point x="414" y="-64" type="curve" smooth="yes"/>
      <point x="414" y="501" type="line"/>
      <point x="395" y="501" type="line"/>
      <point x="395" y="437" type="line"/>
      <point x="360" y="486"/>
      <point x="305" y="510"/>
      <point x="230" y="510" type="curve" smooth="yes"/>
      <point x="114" y="510"/>
      <point x="37" y="442"/>
      <point x="37" y="325" type="curve" smooth="yes"/>
      <point x="37" y="176" type="line" smooth="yes"/>
      <point x="37" y="53"/>
      <point x="106" y="-12"/>
      <point x="223" y="-12" type="curve" smooth="yes"/>
      <point x="299" y="-12"/>
      <point x="356" y="17"/>
      <point x="395" y="75" type="curve"/>
      <point x="395" y="-63" type="line" smooth="yes"/>
      <point x="395" y="-142"/>
      <point x="367" y="-166"/>
      <point x="301" y="-192" type="curve"/>
      <point x="307" y="-210" type="line"/>
    </contour>
    <contour>
      <point x="114" y="6"/>
      <point x="56" y="71"/>
      <point x="56" y="167" type="curve" smooth="yes"/>
      <point x="56" y="320" type="line" smooth="yes"/>
      <point x="56" y="429"/>
      <point x="125" y="491"/>
      <point x="230" y="491" type="curve" smooth="yes"/>
      <point x="315" y="491"/>
      <point x="370" y="460"/>
      <point x="395" y="397" type="curve"/>
      <point x="395" y="160" type="line" smooth="yes"/>
      <point x="395" y="70"/>
      <point x="325" y="6"/>
      <point x="223" y="6" type="curve" smooth="yes"/>
    </contour>
    <contour>
      <point x="227" y="501" type="move" name="top"/>
    </contour>
    <contour>
      <point x="224" y="-232" type="move" name="bottom"/>
    </contour>
  </outline>
</glyph>
<glyph name="h" format="1">
  <advance width="493"/>
  <unicode hex="0068"/>
  <outline>
    <contour>
      <point x="83" y="0" type="line"/>
      <point x="83" y="454" type="line"/>
      <point x="130" y="479"/>
      <point x="184" y="491"/>
      <point x="238" y="491" type="curve" smooth="yes"/>
      <point x="327" y="491"/>
      <point x="414" y="458"/>
      <point x="414" y="347" type="curve" smooth="yes"/>
      <point x="414" y="0" type="line"/>
      <point x="433" y="0" type="line"/>
      <point x="433" y="346" type="line" smooth="yes"/>
      <point x="433" y="470"/>
      <point x="343" y="510"/>
      <point x="238" y="510" type="curve" smooth="yes"/>
      <point x="178" y="510"/>
      <point x="129" y="498"/>
      <point x="83" y="475" type="curve"/>
      <point x="83" y="700" type="line"/>
      <point x="64" y="700" type="line"/>
      <point x="64" y="0" type="line"/>
    </contour>
    <contour>
      <point x="119" y="608" type="move" name="center"/>
    </contour>
    <contour>
      <point x="247" y="0" type="move" name="bottom"/>
    </contour>
    <contour>
      <point x="74" y="694" type="move" name="top"/>
    </contour>
  </outline>
</glyph>
<glyph name="i" format="1">
  <advance width="185"/>
  <unicode hex="0069"/>
  <outline>
    <contour>
      <point x="101" y="0" type="line"/>
      <point x="101" y="501" type="line"/>
      <point x="82" y="501" type="line"/>
      <point x="82" y="0" type="line"/>
    </contour>
    <contour>
      <point x="98" y="683"/>
      <point x="105" y="687"/>
      <point x="105" y="696" type="curve" smooth="yes"/>
      <point x="105" y="705"/>
      <point x="99" y="710"/>
      <point x="92" y="710" type="curve" smooth="yes"/>
      <point x="85" y="710"/>
      <point x="78" y="706"/>
      <point x="78" y="697" type="curve" smooth="yes"/>
      <point x="78" y="688"/>
      <point x="84" y="683"/>
      <point x="91" y="683" type="curve" smooth="yes"/>
    </contour>
    <contour>
      <point x="101" y="0" type="move" name="ogonek"/>
    </contour>
    <contour>
      <point x="92" y="0" type="move" name="bottom"/>
    </contour>
  </outline>
</glyph>
<glyph name="j" format="1">
  <advance width="196"/>
  <unicode hex="006A"/>
  <outline>
    <contour>
      <point x="70" y="-198"/>
      <point x="105" y="-156"/>
      <point x="105" y="-83" type="curve" smooth="yes"/>
      <point x="105" y="501" type="line"/>
      <point x="0" y="501" type="line"/>
      <point x="11" y="482" type="line"/>
      <point x="86" y="482" type="line"/>
      <point x="86" y="-82" type="line" smooth="yes"/>
      <point x="86" y="-148"/>
      <point x="42" y="-191"/>
      <point x="-3" y="-191" type="curve"/>
      <point x="0" y="-209" type="line"/>
    </contour>
    <contour>
      <point x="103" y="683"/>
      <point x="109" y="687"/>
      <point x="109" y="696" type="curve" smooth="yes"/>
      <point x="109" y="707"/>
      <point x="103" y="710"/>
      <point x="96" y="710" type="curve" smooth="yes"/>
      <point x="88" y="710"/>
      <point x="82" y="707"/>
      <point x="82" y="697" type="curve" smooth="yes"/>
      <point x="82" y="687"/>
      <point x="88" y="683"/>
      <point x="95" y="683" type="curve" smooth="yes"/>
    </contour>
  </outline>
</glyph>
<glyph name="k" format="1">
  <advance width="438"/>
  <unicode hex="006B"/>
  <outline>
    <contour>
      <point x="86" y="0" type="line"/>
      <point x="86" y="277" type="line"/>
      <point x="185" y="366" type="line"/>
      <point x="411" y="0" type="line"/>
      <point x="434" y="0" type="line"/>
      <point x="199" y="380" type="line"/>
      <point x="337" y="507" type="line"/>
      <point x="323" y="520" type="line"/>
      <point x="86" y="301" type="line"/>
      <point x="86" y="700" type="line"/>
      <point x="67" y="700" type="line"/>
      <point x="67" y="0" type="line"/>
    </contour>
    <contour>
      <point x="77" y="694" type="move" name="top"/>
    </contour>
    <contour>
      <point x="231" y="0" type="move" name="bottom"/>
    </contour>
  </outline>
</glyph>
<glyph name="m" format="1">
  <advance width="741"/>
  <unicode hex="006D"/>
  <outline>
    <contour>
      <point x="97" y="0" type="line"/>
      <point x="97" y="454" type="line"/>
      <point x="154" y="480"/>
      <point x="195" y="490"/>
      <point x="246" y="490" type="curve" smooth="yes"/>
      <point x="331" y="490"/>
      <point x="384" y="456"/>
      <point x="384" y="371" type="curve" smooth="yes"/>
      <point x="384" y="0" type="line"/>
      <point x="403" y="0" type="line"/>
      <point x="403" y="359" type="line" smooth="yes"/>
      <point x="403" y="397"/>
      <point x="400" y="419"/>
      <point x="392" y="438" type="curve"/>
      <point x="462" y="477"/>
      <point x="514" y="489"/>
      <point x="551" y="489" type="curve" smooth="yes"/>
      <point x="622" y="489"/>
      <point x="683" y="446"/>
      <point x="683" y="352" type="curve" smooth="yes"/>
      <point x="683" y="0" type="line"/>
      <point x="702" y="0" type="line"/>
      <point x="702" y="354" type="line" smooth="yes"/>
      <point x="702" y="462"/>
      <point x="635" y="508"/>
      <point x="551" y="508" type="curve" smooth="yes"/>
      <point x="500" y="508"/>
      <point x="443" y="488"/>
      <point x="384" y="454" type="curve"/>
      <point x="359" y="492"/>
      <point x="321" y="509"/>
      <point x="245" y="509" type="curve" smooth="yes"/>
      <point x="193" y="509"/>
      <point x="149" y="500"/>
      <point x="97" y="476" type="curve"/>
      <point x="97" y="501" type="line"/>
      <point x="78" y="501" type="line"/>
      <point x="78" y="0" type="line"/>
    </contour>
    <contour>
      <point x="388" y="501" type="move" name="top"/>
    </contour>
    <contour>
      <point x="394" y="0" type="move" name="bottom"/>
    </contour>
  </outline>
</glyph>
<glyph name="o" format="1">
  <advance width="461"/>
  <unicode hex="006F"/>
  <outline>
    <contour>
      <point x="361" y="-10"/>
      <point x="422" y="72"/>
      <point x="422" y="184" type="curve" smooth="yes"/>
      <point x="422" y="316" type="line" smooth="yes"/>
      <point x="422" y="437"/>
      <point x="354" y="512"/>
      <point x="235" y="512" type="curve" smooth="yes"/>
      <point x="116" y="512"/>
      <point x="49" y="443"/>
      <point x="49" y="316" type="curve" smooth="yes"/>
      <point x="49" y="184" type="line" smooth="yes"/>
      <point x="49" y="73"/>
      <point x="113" y="-10"/>
      <point x="237" y="-10" type="curve" smooth="yes"/>
    </contour>
    <contour>
      <point x="122" y="8"/>
      <point x="68" y="87"/>
      <point x="68" y="184" type="curve" smooth="yes"/>
      <point x="68" y="320" type="line" smooth="yes"/>
      <point x="68" y="435"/>
      <point x="140" y="493"/>
      <point x="236" y="493" type="curve" smooth="yes"/>
      <point x="332" y="493"/>
      <point x="403" y="435"/>
      <point x="403" y="320" type="curve" smooth="yes"/>
      <point x="403" y="184" type="line" smooth="yes"/>
      <point x="403" y="84"/>
      <point x="350" y="8"/>
      <point x="236" y="8" type="curve" smooth="yes"/>
    </contour>
    <contour>
      <point x="236" y="0" type="move" name="bottom"/>
    </contour>
    <contour>
      <point x="282" y="0" type="move" name="ogonek"/>
    </contour>
    <contour>
      <point x="236" y="501" type="move" name="top"/>
    </contour>
    <contour>
      <point x="441" y="501" type="move" name="topright"/>
    </contour>
    <contour>
      <point x="236" y="251" type="move" name="center"/>
    </contour>
  </outline>
</glyph>
<glyph name="p" format="1">
  <advance width="494"/>
  <unicode hex="0070"/>
  <outline>
    <contour>
      <point x="97" y="-203" type="line"/>
      <point x="97" y="77" type="line"/>
      <point x="127" y="18"/>
      <point x="183" y="-12"/>
      <point x="266" y="-12" type="curve" smooth="yes"/>
      <point x="378" y="-12"/>
      <point x="455" y="55"/>
      <point x="455" y="176" type="curve" smooth="yes"/>
      <point x="455" y="314" type="line" smooth="yes"/>
      <point x="455" y="430"/>
      <point x="388" y="509"/>
      <point x="252" y="509" type="curve" smooth="yes"/>
      <point x="196" y="509"/>
      <point x="132" y="489"/>
      <point x="97" y="441" type="curve"/>
      <point x="97" y="501" type="line"/>
      <point x="78" y="501" type="line"/>
      <point x="78" y="-210" type="line"/>
    </contour>
    <contour>
      <point x="164" y="7"/>
      <point x="97" y="64"/>
      <point x="97" y="156" type="curve" smooth="yes"/>
      <point x="97" y="397" type="line"/>
      <point x="115" y="452"/>
      <point x="173" y="490"/>
      <point x="253" y="490" type="curve" smooth="yes"/>
      <point x="354" y="490"/>
      <point x="436" y="441"/>
      <point x="436" y="318" type="curve" smooth="yes"/>
      <point x="436" y="166" type="line" smooth="yes"/>
      <point x="436" y="73"/>
      <point x="371" y="7"/>
      <point x="269" y="7" type="curve" smooth="yes"/>
    </contour>
    <contour>
      <point x="256" y="501" type="move" name="top"/>
    </contour>
    <contour>
      <point x="256" y="0" type="move" name="bottom"/>
    </contour>
  </outline>
</glyph>
<glyph name="q" format="1">
  <advance width="448"/>
  <unicode hex="0071"/>
  <outline>
    <contour>
      <point x="414" y="501" type="line"/>
      <point x="395" y="501" type="line"/>
      <point x="395" y="441" type="line"/>
      <point x="360" y="489"/>
      <point x="299" y="509"/>
      <point x="236" y="509" type="curve" smooth="yes"/>
      <point x="104" y="509"/>
      <point x="37" y="430"/>
      <point x="37" y="314" type="curve" smooth="yes"/>
      <point x="37" y="176" type="line" smooth="yes"/>
      <point x="37" y="55"/>
      <point x="112" y="-12"/>
      <point x="226" y="-12" type="curve" smooth="yes"/>
      <point x="309" y="-12"/>
      <point x="365" y="18"/>
      <point x="395" y="77" type="curve"/>
      <point x="395" y="-203" type="line"/>
      <point x="414" y="-210" type="line"/>
    </contour>
    <contour>
      <point x="126" y="7"/>
      <point x="56" y="65"/>
      <point x="56" y="166" type="curve" smooth="yes"/>
      <point x="56" y="316" type="line" smooth="yes"/>
      <point x="56" y="412"/>
      <point x="117" y="490"/>
      <point x="236" y="490" type="curve" smooth="yes"/>
      <point x="299" y="490"/>
      <point x="373" y="467"/>
      <point x="395" y="397" type="curve"/>
      <point x="395" y="156" type="line" smooth="yes"/>
      <point x="395" y="64"/>
      <point x="328" y="7"/>
      <point x="226" y="7" type="curve" smooth="yes"/>
    </contour>
    <contour>
      <point x="230" y="501" type="move" name="top"/>
    </contour>
    <contour>
      <point x="228" y="0" type="move" name="bottom"/>
    </contour>
  </outline>
</glyph>
<glyph name="r" format="1">
  <advance width="332"/>
  <unicode hex="0072"/>
  <outline>
    <contour>
      <point x="80" y="0" type="line"/>
      <point x="80" y="399" type="line" smooth="yes"/>
      <point x="80" y="454"/>
      <point x="164" y="491"/>
      <point x="232" y="491" type="curve" smooth="yes"/>
      <point x="255" y="491"/>
      <point x="280" y="487"/>
      <point x="305" y="480" type="curve"/>
      <point x="309" y="500" type="line"/>
      <point x="282" y="506"/>
      <point x="258" y="509"/>
      <point x="234" y="509" type="curve" smooth="yes"/>
      <point x="170" y="509"/>
      <point x="119" y="489"/>
      <point x="80" y="448" type="curve"/>
      <point x="80" y="501" type="line"/>
      <point x="61" y="501" type="line"/>
      <point x="61" y="0" type="line"/>
    </contour>
    <contour>
      <point x="179" y="501" type="move" name="top"/>
    </contour>
    <contour>
      <point x="71" y="0" type="move" name="bottom"/>
    </contour>
  </outline>
</glyph>
<glyph name="s" format="1">
  <advance width="431"/>
  <unicode hex="0073"/>
  <outline>
    <contour>
      <point x="317" y="-15"/>
      <point x="396" y="33"/>
      <point x="396" y="123" type="curve" smooth="yes"/>
      <point x="396" y="223"/>
      <point x="305" y="249"/>
      <point x="220" y="274" type="curve" smooth="yes"/>
      <point x="144" y="295"/>
      <point x="72" y="316"/>
      <point x="72" y="385" type="curve" smooth="yes"/>
      <point x="72" y="453"/>
      <point x="136" y="493"/>
      <point x="215" y="493" type="curve" smooth="yes"/>
      <point x="254" y="493"/>
      <point x="290" y="484"/>
      <point x="322" y="466" type="curve"/>
      <point x="331" y="483" type="line"/>
      <point x="302" y="501"/>
      <point x="262" y="513"/>
      <point x="216" y="513" type="curve" smooth="yes"/>
      <point x="98" y="513"/>
      <point x="53" y="443"/>
      <point x="53" y="383" type="curve" smooth="yes"/>
      <point x="53" y="300"/>
      <point x="134" y="277"/>
      <point x="215" y="253" type="curve" smooth="yes"/>
      <point x="296" y="229"/>
      <point x="377" y="206"/>
      <point x="377" y="122" type="curve" smooth="yes"/>
      <point x="377" y="57"/>
      <point x="318" y="4"/>
      <point x="218" y="4" type="curve" smooth="yes"/>
      <point x="135" y="4"/>
      <point x="58" y="46"/>
      <point x="55" y="127" type="curve"/>
      <point x="36" y="127" type="line"/>
      <point x="39" y="31"/>
      <point x="124" y="-15"/>
      <point x="219" y="-15" type="curve" smooth="yes"/>
    </contour>
    <contour>
      <point x="216" y="501" type="move" name="top"/>
    </contour>
    <contour>
      <point x="218" y="0" type="move" name="bottom"/>
    </contour>
  </outline>
</glyph>
<glyph name="t" format="1">
  <advance width="243"/>
  <unicode hex="0074"/>
  <outline>
    <contour>
      <point x="156" y="5" type="line"/>
      <point x="89" y="26"/>
      <point x="63" y="59"/>
      <point x="63" y="132" type="curve" smooth="yes"/>
      <point x="63" y="482" type="line"/>
      <point x="211" y="482" type="line"/>
      <point x="220" y="501" type="line"/>
      <point x="63" y="501" type="line"/>
      <point x="63" y="700" type="line"/>
      <point x="44" y="700" type="line"/>
      <point x="44" y="132" type="line" smooth="yes"/>
      <point x="44" y="53"/>
      <point x="75" y="8"/>
      <point x="150" y="-13" type="curve"/>
    </contour>
    <contour>
      <point x="131" y="0" type="move" name="bottom"/>
    </contour>
    <contour>
      <point x="54" y="694" type="move" name="top"/>
    </contour>
    <contour>
      <point x="163" y="694" type="move" name="topright"/>
    </contour>
    <contour>
      <point x="90" y="349" type="move" name="center"/>
    </contour>
  </outline>
</glyph>
<glyph name="asciitilde" format="1">
  <advance width="508"/>
  <unicode hex="007E"/>
  <outline>
    <contour>
      <point x="404" y="311"/>
      <point x="439" y="323"/>
      <point x="469" y="346" type="curve"/>
      <point x="458" y="363" type="line"/>
      <point x="433" y="342"/>
      <point x="406" y="331"/>
      <point x="373" y="331" type="curve" smooth="yes"/>
      <point x="307" y="331"/>
      <point x="268" y="375"/>
      <point x="199" y="375" type="curve" smooth="yes"/>
      <point x="157" y="375"/>
      <point x="116" y="359"/>
      <point x="78" y="326" type="curve"/>
      <point x="90" y="310" type="line"/>
      <point x="121" y="339"/>
      <point x="154" y="354"/>
      <point x="193" y="354" type="curve" smooth="yes"/>
      <point x="260" y="354"/>
      <point x="299" y="311"/>
      <point x="368" y="311" type="curve" smooth="yes"/>
    </contour>
  </outline>
</glyph>
<glyph name="cent" format="1">
  <advance width="439"/>
  <unicode hex="00A2"/>
  <outline>
    <contour>
      <point x="319" y="-11"/>
      <point x="357" y="-5"/>
      <point x="400" y="6" type="curve"/>
      <point x="395" y="25" type="line"/>
      <point x="354" y="13"/>
      <point x="314" y="7"/>
      <point x="277" y="7" type="curve" smooth="yes"/>
      <point x="173" y="7"/>
      <point x="97" y="55"/>
      <point x="97" y="169" type="curve" smooth="yes"/>
      <point x="97" y="314" type="line" smooth="yes"/>
      <point x="97" y="418"/>
      <point x="155" y="490"/>
      <point x="265" y="490" type="curve" smooth="yes"/>
      <point x="308" y="490"/>
      <point x="350" y="479"/>
      <point x="391" y="458" type="curve"/>
      <point x="398" y="478" type="line"/>
      <point x="353" y="499"/>
      <point x="308" y="510"/>
      <point x="264" y="510" type="curve" smooth="yes"/>
      <point x="143" y="510"/>
      <point x="78" y="430"/>
      <point x="78" y="308" type="curve" smooth="yes"/>
      <point x="78" y="180" type="line" smooth="yes"/>
      <point x="78" y="51"/>
      <point x="144" y="-11"/>
      <point x="284" y="-11" type="curve" smooth="yes"/>
    </contour>
    <contour>
      <point x="273" y="-114" type="line"/>
      <point x="273" y="623" type="line"/>
      <point x="256" y="623" type="line"/>
      <point x="256" y="-114" type="line"/>
    </contour>
  </outline>
</glyph>
<glyph name="currency" format="1">
  <advance width="468"/>
  <unicode hex="00A4"/>
  <outline>
    <contour>
      <point x="352" y="148"/>
      <point x="429" y="224"/>
      <point x="429" y="323" type="curve" smooth="yes"/>
      <point x="429" y="422"/>
      <point x="352" y="499"/>
      <point x="253" y="499" type="curve" smooth="yes"/>
      <point x="153" y="499"/>
      <point x="78" y="422"/>
      <point x="78" y="323" type="curve" smooth="yes"/>
      <point x="78" y="224"/>
      <point x="153" y="148"/>
      <point x="253" y="148" type="curve" smooth="yes"/>
    </contour>
    <contour>
      <point x="167" y="167"/>
      <point x="97" y="233"/>
      <point x="97" y="323" type="curve" smooth="yes"/>
      <point x="97" y="413"/>
      <point x="167" y="480"/>
      <point x="253" y="480" type="curve" smooth="yes"/>
      <point x="338" y="480"/>
      <point x="409" y="413"/>
      <point x="409" y="323" type="curve" smooth="yes"/>
      <point x="409" y="233"/>
      <point x="338" y="167"/>
      <point x="253" y="167" type="curve" smooth="yes"/>
    </contour>
    <contour>
      <point x="138" y="196" type="line"/>
      <point x="124" y="210" type="line"/>
      <point x="90" y="173" type="line"/>
      <point x="105" y="158" type="line"/>
    </contour>
    <contour>
      <point x="138" y="450" type="line"/>
      <point x="106" y="485" type="line"/>
      <point x="92" y="471" type="line"/>
      <point x="124" y="436" type="line"/>
    </contour>
    <contour>
      <point x="417" y="174" type="line"/>
      <point x="380" y="211" type="line"/>
      <point x="365" y="196" type="line"/>
      <point x="402" y="159" type="line"/>
    </contour>
    <contour>
      <point x="414" y="470" type="line"/>
      <point x="401" y="485" type="line"/>
      <point x="367" y="450" type="line"/>
      <point x="381" y="435" type="line"/>
    </contour>
  </outline>
</glyph>
<glyph name="copyright" format="1">
  <advance width="800"/>
  <unicode hex="00A9"/>
  <outline>
    <contour>
      <point x="608" y="-127"/>
      <point x="774" y="36"/>
      <point x="774" y="248" type="curve" smooth="yes"/>
      <point x="774" y="460"/>
      <point x="610" y="621"/>
      <point x="400" y="621" type="curve" smooth="yes"/>
      <point x="190" y="621"/>
      <point x="25" y="460"/>
      <point x="25" y="248" type="curve" smooth="yes"/>
      <point x="25" y="36"/>
      <point x="193" y="-127"/>
      <point x="400" y="-127" type="curve" smooth="yes"/>
    </contour>
    <contour>
      <point x="499" y="16"/>
      <point x="578" y="79"/>
      <point x="599" y="175" type="curve"/>
      <point x="580" y="175" type="line"/>
      <point x="569" y="107"/>
      <point x="500" y="35"/>
      <point x="403" y="35" type="curve" smooth="yes"/>
      <point x="305" y="35"/>
      <point x="210" y="105"/>
      <point x="210" y="244" type="curve" smooth="yes"/>
      <point x="210" y="358"/>
      <point x="280" y="459"/>
      <point x="404" y="459" type="curve" smooth="yes"/>
      <point x="507" y="459"/>
      <point x="567" y="390"/>
      <point x="580" y="323" type="curve"/>
      <point x="598" y="323" type="line"/>
      <point x="582" y="415"/>
      <point x="504" y="478"/>
      <point x="403" y="478" type="curve" smooth="yes"/>
      <point x="272" y="478"/>
      <point x="191" y="376"/>
      <point x="191" y="244" type="curve" smooth="yes"/>
      <point x="191" y="113"/>
      <point x="273" y="16"/>
      <point x="405" y="16" type="curve" smooth="yes"/>
    </contour>
    <contour>
      <point x="212" y="-108"/>
      <point x="45" y="43"/>
      <point x="45" y="248" type="curve" smooth="yes"/>
      <point x="45" y="453"/>
      <point x="209" y="603"/>
      <point x="402" y="603" type="curve" smooth="yes"/>
      <point x="595" y="603"/>
      <point x="755" y="447"/>
      <point x="755" y="246" type="curve" smooth="yes"/>
      <point x="755" y="46"/>
      <point x="587" y="-108"/>
      <point x="400" y="-108" type="curve" smooth="yes"/>
    </contour>
  </outline>
</glyph>
<glyph name="ordfeminine" format="1">
  <advance width="386"/>
  <unicode hex="00AA"/>
  <outline>
    <contour>
      <point x="273" y="384"/>
      <point x="314" y="388"/>
      <point x="347" y="395" type="curve"/>
      <point x="347" y="564" type="line" smooth="yes"/>
      <point x="347" y="662"/>
      <point x="304" y="709"/>
      <point x="181" y="709" type="curve"/>
      <point x="179" y="693" type="line"/>
      <point x="284" y="690"/>
      <point x="328" y="661"/>
      <point x="328" y="569" type="curve"/>
      <point x="275" y="610"/>
      <point x="224" y="630"/>
      <point x="179" y="630" type="curve" smooth="yes"/>
      <point x="117" y="630"/>
      <point x="78" y="593"/>
      <point x="78" y="508" type="curve" smooth="yes"/>
      <point x="78" y="428"/>
      <point x="112" y="384"/>
      <point x="235" y="384" type="curve" smooth="yes"/>
    </contour>
    <contour>
      <point x="122" y="402"/>
      <point x="97" y="438"/>
      <point x="97" y="508" type="curve" smooth="yes"/>
      <point x="97" y="576"/>
      <point x="122" y="612"/>
      <point x="180" y="612" type="curve" smooth="yes"/>
      <point x="225" y="612"/>
      <point x="274" y="590"/>
      <point x="328" y="547" type="curve"/>
      <point x="328" y="410" type="line"/>
      <point x="292" y="404"/>
      <point x="263" y="402"/>
      <point x="235" y="402" type="curve" smooth="yes"/>
    </contour>
  </outline>
</glyph>
<glyph name="registered" format="1">
  <advance width="800"/>
  <unicode hex="00AE"/>
  <outline>
    <contour>
      <point x="608" y="-127"/>
      <point x="774" y="36"/>
      <point x="774" y="248" type="curve" smooth="yes"/>
      <point x="774" y="460"/>
      <point x="610" y="621"/>
      <point x="400" y="621" type="curve" smooth="yes"/>
      <point x="190" y="621"/>
      <point x="25" y="460"/>
      <point x="25" y="248" type="curve" smooth="yes"/>
      <point x="25" y="36"/>
      <point x="193" y="-127"/>
      <point x="400" y="-127" type="curve" smooth="yes"/>
    </contour>
    <contour>
      <point x="207" y="-108"/>
      <point x="44" y="43"/>
      <point x="44" y="248" type="curve" smooth="yes"/>
      <point x="44" y="453"/>
      <point x="204" y="602"/>
      <point x="400" y="602" type="curve" smooth="yes"/>
      <point x="597" y="602"/>
      <point x="755" y="453"/>
      <point x="755" y="248" type="curve" smooth="yes"/>
      <point x="755" y="44"/>
      <point x="597" y="-108"/>
      <point x="402" y="-108" type="curve" smooth="yes"/>
    </contour>
    <contour>
      <point x="283" y="39" type="line"/>
      <point x="283" y="229" type="line"/>
      <point x="442" y="229" type="line"/>
      <point x="564" y="39" type="line"/>
      <point x="587" y="39" type="line"/>
      <point x="464" y="231" type="line"/>
      <point x="540" y="240"/>
      <point x="578" y="296"/>
      <point x="578" y="352" type="curve" smooth="yes"/>
      <point x="578" y="414"/>
      <point x="531" y="476"/>
      <point x="437" y="476" type="curve" smooth="yes"/>
      <point x="264" y="476" type="line"/>
      <point x="264" y="39" type="line"/>
    </contour>
    <contour>
      <point x="283" y="457" type="line"/>
      <point x="435" y="457" type="line" smooth="yes"/>
      <point x="499" y="457"/>
      <point x="559" y="428"/>
      <point x="559" y="352" type="curve" smooth="yes"/>
      <point x="559" y="282"/>
      <point x="507" y="248"/>
      <point x="441" y="248" type="curve" smooth="yes"/>
      <point x="283" y="248" type="line"/>
    </contour>
  </outline>
</glyph>
<glyph name="degree" format="1">
  <advance width="405"/>
  <unicode hex="00B0"/>
  <outline>
    <contour>
      <point x="301" y="420"/>
      <point x="368" y="486"/>
      <point x="368" y="566" type="curve" smooth="yes"/>
      <point x="368" y="645"/>
      <point x="301" y="712"/>
      <point x="222" y="712" type="curve" smooth="yes"/>
      <point x="142" y="712"/>
      <point x="76" y="645"/>
      <point x="76" y="566" type="curve" smooth="yes"/>
      <point x="76" y="488"/>
      <point x="142" y="420"/>
      <point x="222" y="420" type="curve" smooth="yes"/>
    </contour>
    <contour>
      <point x="151" y="440"/>
      <point x="96" y="498"/>
      <point x="96" y="566" type="curve" smooth="yes"/>
      <point x="96" y="634"/>
      <point x="151" y="693"/>
      <point x="222" y="693" type="curve" smooth="yes"/>
      <point x="293" y="693"/>
      <point x="347" y="634"/>
      <point x="347" y="566" type="curve" smooth="yes"/>
      <point x="347" y="498"/>
      <point x="293" y="440"/>
      <point x="222" y="440" type="curve" smooth="yes"/>
    </contour>
  </outline>
</glyph>
<glyph name="paragraph" format="1">
  <advance width="675"/>
  <unicode hex="00B6"/>
  <outline>
    <contour>
      <point x="636" y="-199" type="line"/>
      <point x="636" y="750" type="line"/>
      <point x="264" y="750" type="line" smooth="yes"/>
      <point x="139" y="750"/>
      <point x="78" y="657"/>
      <point x="78" y="502" type="curve" smooth="yes"/>
      <point x="78" y="352"/>
      <point x="131" y="246"/>
      <point x="255" y="246" type="curve" smooth="yes"/>
      <point x="494" y="246" type="line"/>
      <point x="494" y="-198" type="line"/>
      <point x="512" y="-198" type="line"/>
      <point x="512" y="729" type="line"/>
      <point x="618" y="729" type="line"/>
      <point x="618" y="-199" type="line"/>
    </contour>
  </outline>
</glyph>
<glyph name="ordmasculine" format="1">
  <advance width="349"/>
  <unicode hex="00BA"/>
  <outline>
    <contour>
      <point x="267" y="384"/>
      <point x="310" y="442"/>
      <point x="310" y="520" type="curve" smooth="yes"/>
      <point x="310" y="573" type="line" smooth="yes"/>
      <point x="310" y="658"/>
      <point x="262" y="711"/>
      <point x="179" y="711" type="curve" smooth="yes"/>
      <point x="96" y="711"/>
      <point x="49" y="662"/>
      <point x="49" y="573" type="curve" smooth="yes"/>
      <point x="49" y="520" type="line" smooth="yes"/>
      <point x="49" y="443"/>
      <point x="94" y="384"/>
      <point x="181" y="384" type="curve" smooth="yes"/>
    </contour>
    <contour>
      <point x="108" y="401"/>
      <point x="68" y="450"/>
      <point x="68" y="518" type="curve" smooth="yes"/>
      <point x="68" y="575" type="line" smooth="yes"/>
      <point x="68" y="653"/>
      <point x="115" y="693"/>
      <point x="180" y="693" type="curve" smooth="yes"/>
      <point x="245" y="693"/>
      <point x="291" y="653"/>
      <point x="291" y="575" type="curve" smooth="yes"/>
      <point x="291" y="518" type="line" smooth="yes"/>
      <point x="291" y="449"/>
      <point x="252" y="401"/>
      <point x="180" y="401" type="curve" smooth="yes"/>
    </contour>
  </outline>
</glyph>
<glyph name="Thorn" format="1">
  <advance width="530"/>
  <unicode hex="00DE"/>
  <outline>
    <contour>
      <point x="97" y="0" type="line"/>
      <point x="97" y="154" type="line"/>
      <point x="290" y="154" type="line" smooth="yes"/>
      <point x="424" y="154"/>
      <point x="491" y="220"/>
      <point x="491" y="352" type="curve" smooth="yes"/>
      <point x="491" y="479"/>
      <point x="430" y="559"/>
      <point x="303" y="559" type="curve" smooth="yes"/>
      <point x="97" y="559" type="line"/>
      <point x="97" y="700" type="line"/>
      <point x="78" y="700" type="line"/>
      <point x="78" y="0" type="line"/>
    </contour>
    <contour>
      <point x="97" y="539" type="line"/>
      <point x="304" y="539" type="line" smooth="yes"/>
      <point x="420" y="539"/>
      <point x="472" y="467"/>
      <point x="472" y="352" type="curve" smooth="yes"/>
      <point x="472" y="233"/>
      <point x="411" y="173"/>
      <point x="288" y="173" type="curve" smooth="yes"/>
      <point x="97" y="173" type="line"/>
    </contour>
  </outline>
</glyph>
<glyph name="germandbls" format="1">
  <advance width="515"/>
  <unicode hex="00DF"/>
  <outline>
    <contour>
      <point x="427" y="-11"/>
      <point x="477" y="50"/>
      <point x="477" y="125" type="curve" smooth="yes"/>
      <point x="477" y="216"/>
      <point x="409" y="272"/>
      <point x="336" y="322" type="curve" smooth="yes"/>
      <point x="273" y="365"/>
      <point x="229" y="402"/>
      <point x="229" y="451" type="curve" smooth="yes"/>
      <point x="229" y="462"/>
      <point x="231" y="475"/>
      <point x="236" y="487" type="curve"/>
      <point x="295" y="500"/>
      <point x="324" y="541"/>
      <point x="324" y="593" type="curve" smooth="yes"/>
      <point x="324" y="666"/>
      <point x="269" y="701"/>
      <point x="203" y="701" type="curve" smooth="yes"/>
      <point x="121" y="701"/>
      <point x="78" y="646"/>
      <point x="78" y="537" type="curve" smooth="yes"/>
      <point x="78" y="0" type="line"/>
      <point x="97" y="0" type="line"/>
      <point x="97" y="541" type="line" smooth="yes"/>
      <point x="97" y="635"/>
      <point x="133" y="682"/>
      <point x="203" y="682" type="curve" smooth="yes"/>
      <point x="263" y="682"/>
      <point x="305" y="651"/>
      <point x="305" y="594" type="curve" smooth="yes"/>
      <point x="305" y="548"/>
      <point x="281" y="510"/>
      <point x="223" y="502" type="curve"/>
      <point x="214" y="484"/>
      <point x="210" y="469"/>
      <point x="210" y="451" type="curve" smooth="yes"/>
      <point x="210" y="386"/>
      <point x="267" y="346"/>
      <point x="327" y="304" type="curve" smooth="yes"/>
      <point x="391" y="259"/>
      <point x="456" y="209"/>
      <point x="456" y="128" type="curve" smooth="yes"/>
      <point x="456" y="61"/>
      <point x="407" y="9"/>
      <point x="317" y="9" type="curve" smooth="yes"/>
      <point x="271" y="9"/>
      <point x="220" y="23"/>
      <point x="184" y="56" type="curve"/>
      <point x="172" y="37" type="line"/>
      <point x="210" y="5"/>
      <point x="260" y="-11"/>
      <point x="317" y="-11" type="curve" smooth="yes"/>
    </contour>
  </outline>
</glyph>
<glyph name="aring" format="1">
  <advance width="458"/>
  <unicode hex="00E5"/>
  <outline>
    <contour>
      <point x="298" y="-10"/>
      <point x="354" y="-7"/>
      <point x="422" y="0" type="curve"/>
      <point x="422" y="337" type="line" smooth="yes"/>
      <point x="422" y="452"/>
      <point x="369" y="508"/>
      <point x="234" y="508" type="curve"/>
      <point x="237" y="490" type="line"/>
      <point x="335" y="490"/>
      <point x="403" y="455"/>
      <point x="403" y="343" type="curve"/>
      <point x="345" y="383"/>
      <point x="274" y="402"/>
      <point x="205" y="402" type="curve" smooth="yes"/>
      <point x="96" y="402"/>
      <point x="37" y="351"/>
      <point x="37" y="252" type="curve" smooth="yes"/>
      <point x="37" y="169" type="line" smooth="yes"/>
      <point x="37" y="50"/>
      <point x="109" y="-10"/>
      <point x="260" y="-10" type="curve" smooth="yes"/>
    </contour>
    <contour>
      <point x="145" y="7"/>
      <point x="56" y="45"/>
      <point x="56" y="168" type="curve" smooth="yes"/>
      <point x="56" y="249" type="line" smooth="yes"/>
      <point x="56" y="333"/>
      <point x="101" y="384"/>
      <point x="203" y="384" type="curve" smooth="yes"/>
      <point x="267" y="384"/>
      <point x="347" y="363"/>
      <point x="403" y="323" type="curve"/>
      <point x="403" y="16" type="line"/>
      <point x="348" y="10"/>
      <point x="298" y="7"/>
      <point x="260" y="7" type="curve" smooth="yes"/>
    </contour>
    <contour>
      <point x="248" y="490"/>
      <point x="259" y="493"/>
      <point x="269" y="500" type="curve"/>
      <point x="309" y="513"/>
      <point x="338" y="551"/>
      <point x="338" y="596" type="curve" smooth="yes"/>
      <point x="338" y="653"/>
      <point x="291" y="701"/>
      <point x="232" y="701" type="curve" smooth="yes"/>
      <point x="172" y="701"/>
      <point x="126" y="653"/>
      <point x="126" y="596" type="curve" smooth="yes"/>
      <point x="126" y="538"/>
      <point x="172" y="490"/>
      <point x="237" y="490" type="curve" smooth="yes"/>
    </contour>
    <contour>
      <point x="184" y="511"/>
      <point x="147" y="549"/>
      <point x="147" y="596" type="curve" smooth="yes"/>
      <point x="147" y="643"/>
      <point x="184" y="680"/>
      <point x="232" y="680" type="curve" smooth="yes"/>
      <point x="279" y="680"/>
      <point x="316" y="643"/>
      <point x="316" y="596" type="curve" smooth="yes"/>
      <point x="316" y="549"/>
      <point x="279" y="511"/>
      <point x="232" y="511" type="curve" smooth="yes"/>
    </contour>
    <contour>
      <point x="422" y="0" type="move" name="ogonek"/>
    </contour>
    <contour>
      <point x="232" y="501" type="move" name="top"/>
    </contour>
    <contour>
      <point x="232" y="501" type="move" name="_top"/>
    </contour>
    <contour>
      <point x="233" y="0" type="move" name="bottom"/>
    </contour>
  </outline>
</glyph>
<glyph name="Eng" format="1">
  <advance width="653"/>
  <unicode hex="014A"/>
  <outline>
    <contour>
      <point x="97" y="0" type="line"/>
      <point x="97" y="670" type="line"/>
      <point x="558" y="-6" type="line"/>
      <point x="573" y="0" type="line"/>
      <point x="573" y="700" type="line"/>
      <point x="554" y="700" type="line"/>
      <point x="554" y="31" type="line"/>
      <point x="97" y="700" type="line"/>
      <point x="78" y="700" type="line"/>
      <point x="78" y="0" type="line"/>
    </contour>
    <contour>
      <point x="554" y="20" type="line"/>
      <point x="554" y="-82" type="line" smooth="yes"/>
      <point x="554" y="-148"/>
      <point x="510" y="-191"/>
      <point x="465" y="-191" type="curve"/>
      <point x="468" y="-209" type="line"/>
      <point x="538" y="-198"/>
      <point x="573" y="-156"/>
      <point x="573" y="-83" type="curve" smooth="yes"/>
      <point x="573" y="20" type="line"/>
    </contour>
  </outline>
</glyph>
<glyph name="eng" format="1">
  <advance width="500"/>
  <unicode hex="014B"/>
  <outline>
    <contour>
      <point x="178" y="510"/>
      <point x="129" y="498"/>
      <point x="83" y="475" type="curve"/>
      <point x="83" y="501" type="line"/>
      <point x="64" y="501" type="line"/>
      <point x="64" y="0" type="line"/>
      <point x="83" y="0" type="line"/>
      <point x="83" y="454" type="line"/>
      <point x="130" y="479"/>
      <point x="183" y="491"/>
      <point x="242" y="491" type="curve" smooth="yes"/>
      <point x="342" y="491"/>
      <point x="414" y="442"/>
      <point x="414" y="347" type="curve" smooth="yes"/>
      <point x="414" y="-82" type="line" smooth="yes"/>
      <point x="414" y="-148"/>
      <point x="370" y="-191"/>
      <point x="325" y="-191" type="curve"/>
      <point x="328" y="-209" type="line"/>
      <point x="398" y="-198"/>
      <point x="433" y="-156"/>
      <point x="433" y="-83" type="curve" smooth="yes"/>
      <point x="433" y="346" type="line" smooth="yes"/>
      <point x="433" y="460"/>
      <point x="358" y="510"/>
      <point x="238" y="510" type="curve" smooth="yes"/>
    </contour>
  </outline>
</glyph>
<glyph name="jdotless" format="1">
  <advance width="192"/>
  <unicode hex="0237"/>
  <outline>
    <contour>
      <point x="70" y="-198"/>
      <point x="105" y="-156"/>
      <point x="105" y="-83" type="curve" smooth="yes"/>
      <point x="105" y="501" type="line"/>
      <point x="0" y="501" type="line"/>
      <point x="11" y="482" type="line"/>
      <point x="86" y="482" type="line"/>
      <point x="86" y="-82" type="line" smooth="yes"/>
      <point x="86" y="-148"/>
      <point x="42" y="-191"/>
      <point x="-3" y="-191" type="curve"/>
      <point x="0" y="-209" type="line"/>
    </contour>
    <contour>
      <point x="96" y="501" type="move" name="top"/>
    </contour>
    <contour>
      <point x="67" y="-232" type="move" name="bottom"/>
    </contour>
  </outline>
</glyph>
<glyph name="circumflexcomb" format="1">
  <advance width="425"/>
  <unicode hex="0302"/>
  <outline>
    <contour>
      <point x="193" y="690" type="line"/>
      <point x="319" y="563" type="line"/>
      <point x="336" y="579" type="line"/>
      <point x="194" y="720" type="line"/>
      <point x="46" y="579" type="line"/>
      <point x="62" y="563" type="line"/>
    </contour>
    <contour>
      <point x="194" y="720" type="move" name="top"/>
    </contour>
    <contour>
      <point x="194" y="501" type="move" name="_top"/>
    </contour>
  </outline>
</glyph>
<glyph name="macroncomb" format="1">
  <advance width="338"/>
  <unicode hex="0304"/>
  <outline>
    <contour>
      <point x="299" y="577" type="line"/>
      <point x="299" y="596" type="line"/>
      <point x="78" y="596" type="line"/>
      <point x="78" y="577" type="line"/>
    </contour>
    <contour>
      <point x="189" y="596" type="move" name="top"/>
    </contour>
    <contour>
      <point x="189" y="501" type="move" name="_top"/>
    </contour>
  </outline>
</glyph>
<glyph name="hungarumlautcomb" format="1">
  <advance width="279"/>
  <unicode hex="030B"/>
  <outline>
    <component base="acutecomb" xOffset="-6"/>
    <component base="acutecomb" xOffset="106"/>
    <contour>
      <point x="131" y="679" type="move" name="top"/>
    </contour>
    <contour>
      <point x="131" y="501" type="move" name="_top"/>
    </contour>
  </outline>
</glyph>
<glyph name="commaaccentcomb" format="1">
  <advance width="148"/>
  <unicode hex="0326"/>
  <outline>
    <component base="comma" xOffset="1" yOffset="-100"/>
    <contour>
      <point x="82" y="0" type="move" name="_bottom"/>
    </contour>
    <contour>
      <point x="82" y="-184" type="move" name="bottom"/>
    </contour>
  </outline>
</glyph>
<glyph name="cedillacomb" format="1">
  <advance width="296"/>
  <unicode hex="0327"/>
  <outline>
    <contour>
      <point x="196" y="-210"/>
      <point x="256" y="-186"/>
      <point x="256" y="-121" type="curve" smooth="yes"/>
      <point x="256" y="-68"/>
      <point x="217" y="-46"/>
      <point x="166" y="-46" type="curve" smooth="yes"/>
      <point x="147" y="-46"/>
      <point x="130" y="-49"/>
      <point x="115" y="-56" type="curve"/>
      <point x="160" y="5" type="line"/>
      <point x="140" y="5" type="line"/>
      <point x="76" y="-78" type="line"/>
      <point x="82" y="-88" type="line"/>
      <point x="106" y="-78" type="line" smooth="yes"/>
      <point x="136" y="-67"/>
      <point x="150" y="-64"/>
      <point x="167" y="-64" type="curve" smooth="yes"/>
      <point x="204" y="-64"/>
      <point x="237" y="-83"/>
      <point x="237" y="-122" type="curve" smooth="yes"/>
      <point x="237" y="-168"/>
      <point x="191" y="-192"/>
      <point x="136" y="-192" type="curve" smooth="yes"/>
      <point x="110" y="-192"/>
      <point x="79" y="-187"/>
      <point x="48" y="-171" type="curve"/>
      <point x="40" y="-188" type="line"/>
      <point x="73" y="-202"/>
      <point x="104" y="-210"/>
      <point x="137" y="-210" type="curve" smooth="yes"/>
    </contour>
    <contour>
      <point x="151" y="0" type="move" name="_bottom"/>
    </contour>
    <contour>
      <point x="148" y="-210" type="move" name="bottom"/>
    </contour>
  </outline>
</glyph>
<glyph name="strokeshortcomb" format="1">
  <advance width="314"/>
  <unicode hex="0335"/>
  <outline>
    <contour>
      <point x="274" y="339" type="line"/>
      <point x="274" y="358" type="line"/>
      <point x="40" y="358" type="line"/>
      <point x="40" y="339" type="line"/>
    </contour>
    <contour>
      <point x="157" y="349" type="move" name="_center"/>
    </contour>
  </outline>
</glyph>
<glyph name="slashshortcomb" format="1">
  <advance width="322"/>
  <unicode hex="0337"/>
  <outline>
    <contour>
      <point x="282" y="458" type="line"/>
      <point x="274" y="475" type="line"/>
      <point x="40" y="370" type="line"/>
      <point x="47" y="353" type="line"/>
    </contour>
    <contour>
      <point x="161" y="414" type="move" name="_center"/>
    </contour>
  </outline>
</glyph>
<glyph name="Delta" format="1">
  <advance width="528"/>
  <unicode hex="0394"/>
  <outline>
    <contour>
      <point x="517" y="0" type="line"/>
      <point x="271" y="700" type="line"/>
      <point x="252" y="700" type="line"/>
      <point x="12" y="0" type="line"/>
    </contour>
    <contour>
      <point x="262" y="674" type="line"/>
      <point x="490" y="19" type="line"/>
      <point x="39" y="19" type="line"/>
    </contour>
  </outline>
</glyph>
<glyph name="Theta" format="1">
  <advance width="549"/>
  <unicode hex="0398"/>
  <outline>
    <contour>
      <point x="389" y="-11"/>
      <point x="483" y="50"/>
      <point x="483" y="185" type="curve" smooth="yes"/>
      <point x="483" y="506" type="line" smooth="yes"/>
      <point x="483" y="637"/>
      <point x="407" y="716"/>
      <point x="275" y="716" type="curve" smooth="yes"/>
      <point x="143" y="716"/>
      <point x="63" y="644"/>
      <point x="63" y="507" type="curve" smooth="yes"/>
      <point x="63" y="185" type="line" smooth="yes"/>
      <point x="63" y="50"/>
      <point x="159" y="-11"/>
      <point x="274" y="-11" type="curve" smooth="yes"/>
    </contour>
    <contour>
      <point x="167" y="8"/>
      <point x="82" y="68"/>
      <point x="82" y="184" type="curve" smooth="yes"/>
      <point x="82" y="347" type="line"/>
      <point x="464" y="347" type="line"/>
      <point x="464" y="184" type="line" smooth="yes"/>
      <point x="464" y="61"/>
      <point x="381" y="8"/>
      <point x="274" y="8" type="curve" smooth="yes"/>
    </contour>
    <contour>
      <point x="82" y="508" type="line" smooth="yes"/>
      <point x="82" y="623"/>
      <point x="146" y="695"/>
      <point x="273" y="695" type="curve" smooth="yes"/>
      <point x="400" y="695"/>
      <point x="464" y="625"/>
      <point x="464" y="510" type="curve" smooth="yes"/>
      <point x="464" y="366" type="line"/>
      <point x="82" y="366" type="line"/>
    </contour>
  </outline>
</glyph>
<glyph name="Xi" format="1">
  <advance width="626"/>
  <unicode hex="039E"/>
  <outline>
    <contour>
      <point x="116" y="647"/>
      <point x="143" y="680"/>
      <point x="223" y="680" type="curve" smooth="yes"/>
      <point x="539" y="680" type="line"/>
      <point x="548" y="700" type="line"/>
      <point x="223" y="700" type="line" smooth="yes"/>
      <point x="144" y="700"/>
      <point x="99" y="670"/>
      <point x="78" y="595" type="curve"/>
      <point x="96" y="588" type="line"/>
    </contour>
    <contour>
      <point x="442" y="0" type="line" smooth="yes"/>
      <point x="521" y="0"/>
      <point x="566" y="31"/>
      <point x="587" y="106" type="curve"/>
      <point x="568" y="113" type="line"/>
      <point x="548" y="53"/>
      <point x="522" y="19"/>
      <point x="442" y="19" type="curve" smooth="yes"/>
      <point x="125" y="19" type="line"/>
      <point x="117" y="0" type="line"/>
    </contour>
    <contour>
      <point x="469" y="394" type="line"/>
      <point x="469" y="413" type="line"/>
      <point x="205" y="413" type="line"/>
      <point x="205" y="394" type="line"/>
    </contour>
  </outline>
</glyph>
<glyph name="Sigma" format="1">
  <advance width="585"/>
  <unicode hex="03A3"/>
  <outline>
    <contour>
      <point x="401" y="0" type="line" smooth="yes"/>
      <point x="480" y="0"/>
      <point x="525" y="31"/>
      <point x="546" y="106" type="curve"/>
      <point x="526" y="113" type="line"/>
      <point x="505" y="38"/>
      <point x="464" y="20"/>
      <point x="385" y="20" type="curve" smooth="yes"/>
      <point x="112" y="20" type="line"/>
      <point x="327" y="384" type="line"/>
      <point x="132" y="678" type="line"/>
      <point x="514" y="678" type="line"/>
      <point x="522" y="700" type="line"/>
      <point x="94" y="700" type="line"/>
      <point x="304" y="384" type="line"/>
      <point x="78" y="0" type="line"/>
    </contour>
  </outline>
</glyph>
<glyph name="Psi" format="1">
  <advance width="627"/>
  <unicode hex="03A8"/>
  <outline>
    <contour>
      <point x="314" y="0" type="line"/>
      <point x="314" y="212" type="line"/>
      <point x="383" y="212" type="line" smooth="yes"/>
      <point x="510" y="212"/>
      <point x="571" y="285"/>
      <point x="571" y="406" type="curve" smooth="yes"/>
      <point x="571" y="546" type="line" smooth="yes"/>
      <point x="571" y="608"/>
      <point x="571" y="671"/>
      <point x="515" y="706" type="curve"/>
      <point x="505" y="694" type="line"/>
      <point x="541" y="664"/>
      <point x="552" y="640"/>
      <point x="552" y="561" type="curve" smooth="yes"/>
      <point x="552" y="406" type="line" smooth="yes"/>
      <point x="552" y="294"/>
      <point x="495" y="231"/>
      <point x="383" y="231" type="curve" smooth="yes"/>
      <point x="314" y="231" type="line"/>
      <point x="314" y="700" type="line"/>
      <point x="295" y="700" type="line"/>
      <point x="295" y="231" type="line"/>
      <point x="232" y="231" type="line" smooth="yes"/>
      <point x="129" y="231"/>
      <point x="63" y="285"/>
      <point x="63" y="406" type="curve" smooth="yes"/>
      <point x="63" y="700" type="line"/>
      <point x="44" y="700" type="line"/>
      <point x="44" y="406" type="line" smooth="yes"/>
      <point x="44" y="285"/>
      <point x="105" y="212"/>
      <point x="232" y="212" type="curve" smooth="yes"/>
      <point x="295" y="212" type="line"/>
      <point x="295" y="0" type="line"/>
    </contour>
  </outline>
</glyph>
<glyph name="Omega" format="1">
  <advance width="652"/>
  <unicode hex="03A9"/>
  <outline>
    <contour>
      <point x="306" y="0" type="line"/>
      <point x="306" y="20" type="line"/>
      <point x="217" y="20"/>
      <point x="109" y="86"/>
      <point x="109" y="205" type="curve" smooth="yes"/>
      <point x="109" y="503" type="line" smooth="yes"/>
      <point x="109" y="627"/>
      <point x="175" y="688"/>
      <point x="279" y="688" type="curve" smooth="yes"/>
      <point x="391" y="688" type="line" smooth="yes"/>
      <point x="495" y="688"/>
      <point x="563" y="629"/>
      <point x="563" y="502" type="curve" smooth="yes"/>
      <point x="563" y="205" type="line" smooth="yes"/>
      <point x="563" y="86"/>
      <point x="453" y="20"/>
      <point x="364" y="20" type="curve"/>
      <point x="364" y="0" type="line"/>
      <point x="595" y="0" type="line"/>
      <point x="586" y="20" type="line"/>
      <point x="450" y="20" type="line"/>
      <point x="530" y="51"/>
      <point x="582" y="116"/>
      <point x="582" y="205" type="curve" smooth="yes"/>
      <point x="582" y="503" type="line" smooth="yes"/>
      <point x="582" y="626"/>
      <point x="518" y="707"/>
      <point x="391" y="707" type="curve" smooth="yes"/>
      <point x="279" y="707" type="line" smooth="yes"/>
      <point x="153" y="707"/>
      <point x="90" y="626"/>
      <point x="90" y="503" type="curve" smooth="yes"/>
      <point x="90" y="205" type="line" smooth="yes"/>
      <point x="90" y="116"/>
      <point x="140" y="51"/>
      <point x="220" y="20" type="curve"/>
      <point x="85" y="20" type="line"/>
      <point x="78" y="0" type="line"/>
    </contour>
    <contour>
      <point x="90" y="694" type="move" name="topleft"/>
    </contour>
    <contour>
      <point x="326" y="0" type="move" name="bottom"/>
    </contour>
  </outline>
</glyph>
<glyph name="alpha" format="1">
  <advance width="477"/>
  <unicode hex="03B1"/>
  <outline>
    <contour>
      <point x="318" y="-12"/>
      <point x="366" y="-8"/>
      <point x="418" y="2" type="curve"/>
      <point x="432" y="-2" type="line"/>
      <point x="441" y="15" type="line"/>
      <point x="429" y="19"/>
      <point x="423" y="23"/>
      <point x="423" y="36" type="curve" smooth="yes"/>
      <point x="423" y="438" type="line" smooth="yes"/>
      <point x="423" y="456"/>
      <point x="424" y="470"/>
      <point x="430" y="486" type="curve"/>
      <point x="413" y="493" type="line"/>
      <point x="405" y="477" type="line"/>
      <point x="359" y="499"/>
      <point x="309" y="510"/>
      <point x="249" y="510" type="curve" smooth="yes"/>
      <point x="136" y="510"/>
      <point x="54" y="463"/>
      <point x="54" y="340" type="curve" smooth="yes"/>
      <point x="54" y="157" type="line" smooth="yes"/>
      <point x="54" y="41"/>
      <point x="135" y="-12"/>
      <point x="279" y="-12" type="curve" smooth="yes"/>
    </contour>
    <contour>
      <point x="142" y="7"/>
      <point x="73" y="57"/>
      <point x="73" y="156" type="curve" smooth="yes"/>
      <point x="73" y="343" type="line" smooth="yes"/>
      <point x="73" y="440"/>
      <point x="134" y="491"/>
      <point x="250" y="491" type="curve" smooth="yes"/>
      <point x="305" y="491"/>
      <point x="358" y="480"/>
      <point x="404" y="457" type="curve"/>
      <point x="404" y="19" type="line"/>
      <point x="361" y="12"/>
      <point x="320" y="7"/>
      <point x="281" y="7" type="curve" smooth="yes"/>
    </contour>
    <contour>
      <point x="254" y="501" type="move" name="top"/>
    </contour>
  </outline>
</glyph>
<glyph name="gamma" format="1">
  <advance width="514"/>
  <unicode hex="03B3"/>
  <outline>
    <contour>
      <point x="264" y="-180" type="line"/>
      <point x="254" y="-167"/>
      <point x="249" y="-152"/>
      <point x="249" y="-135" type="curve" smooth="yes"/>
      <point x="249" y="-118"/>
      <point x="254" y="-99"/>
      <point x="260" y="-78" type="curve" smooth="yes"/>
      <point x="397" y="382" type="line" smooth="yes"/>
      <point x="418" y="452"/>
      <point x="440" y="474"/>
      <point x="478" y="491" type="curve"/>
      <point x="471" y="506" type="line"/>
      <point x="422" y="486"/>
      <point x="401" y="452"/>
      <point x="380" y="388" type="curve" smooth="yes"/>
      <point x="266" y="12" type="line"/>
      <point x="210" y="23"/>
      <point x="167" y="61"/>
      <point x="146" y="134" type="curve" smooth="yes"/>
      <point x="40" y="501" type="line"/>
      <point x="21" y="501" type="line"/>
      <point x="129" y="129" type="line" smooth="yes"/>
      <point x="156" y="35"/>
      <point x="213" y="5"/>
      <point x="261" y="-5" type="curve"/>
      <point x="239" y="-78" type="line" smooth="yes"/>
      <point x="233" y="-97"/>
      <point x="227" y="-119"/>
      <point x="227" y="-139" type="curve" smooth="yes"/>
      <point x="227" y="-158"/>
      <point x="234" y="-176"/>
      <point x="249" y="-192" type="curve"/>
    </contour>
  </outline>
</glyph>
<glyph name="delta" format="1">
  <advance width="490"/>
  <unicode hex="03B4"/>
  <outline>
    <contour>
      <point x="389" y="-10"/>
      <point x="451" y="55"/>
      <point x="451" y="184" type="curve" smooth="yes"/>
      <point x="451" y="295" type="line" smooth="yes"/>
      <point x="451" y="411"/>
      <point x="384" y="463"/>
      <point x="287" y="498" type="curve" smooth="yes"/>
      <point x="229" y="519"/>
      <point x="191" y="549"/>
      <point x="191" y="599" type="curve" smooth="yes"/>
      <point x="191" y="658"/>
      <point x="234" y="686"/>
      <point x="296" y="686" type="curve" smooth="yes"/>
      <point x="328" y="686" type="line"/>
      <point x="338" y="705" type="line"/>
      <point x="296" y="705" type="line" smooth="yes"/>
      <point x="216" y="705"/>
      <point x="172" y="661"/>
      <point x="172" y="599" type="curve" smooth="yes"/>
      <point x="172" y="564"/>
      <point x="186" y="530"/>
      <point x="233" y="504" type="curve"/>
      <point x="139" y="486"/>
      <point x="78" y="413"/>
      <point x="78" y="310" type="curve" smooth="yes"/>
      <point x="78" y="184" type="line" smooth="yes"/>
      <point x="78" y="63"/>
      <point x="139" y="-10"/>
      <point x="266" y="-10" type="curve" smooth="yes"/>
    </contour>
    <contour>
      <point x="162" y="9"/>
      <point x="97" y="70"/>
      <point x="97" y="184" type="curve" smooth="yes"/>
      <point x="97" y="310" type="line" smooth="yes"/>
      <point x="97" y="411"/>
      <point x="169" y="483"/>
      <point x="256" y="491" type="curve"/>
      <point x="375" y="451"/>
      <point x="432" y="396"/>
      <point x="432" y="301" type="curve" smooth="yes"/>
      <point x="432" y="184" type="line" smooth="yes"/>
      <point x="432" y="69"/>
      <point x="375" y="9"/>
      <point x="266" y="9" type="curve" smooth="yes"/>
    </contour>
  </outline>
</glyph>
<glyph name="eta" format="1">
  <advance width="486"/>
  <unicode hex="03B7"/>
  <outline>
    <contour>
      <point x="447" y="346" type="line" smooth="yes"/>
      <point x="447" y="460"/>
      <point x="372" y="510"/>
      <point x="252" y="510" type="curve" smooth="yes"/>
      <point x="192" y="510"/>
      <point x="143" y="498"/>
      <point x="97" y="475" type="curve"/>
      <point x="97" y="501" type="line"/>
      <point x="78" y="501" type="line"/>
      <point x="78" y="0" type="line"/>
      <point x="97" y="0" type="line"/>
      <point x="97" y="454" type="line"/>
      <point x="144" y="479"/>
      <point x="197" y="491"/>
      <point x="256" y="491" type="curve" smooth="yes"/>
      <point x="356" y="491"/>
      <point x="428" y="442"/>
      <point x="428" y="347" type="curve" smooth="yes"/>
      <point x="428" y="-203" type="line"/>
      <point x="447" y="-212" type="line"/>
    </contour>
    <contour>
      <point x="264" y="501" type="move" name="top"/>
    </contour>
  </outline>
</glyph>
<glyph name="lambda" format="1">
  <advance width="581"/>
  <unicode hex="03BB"/>
  <outline>
    <contour>
      <point x="534" y="10" type="line"/>
      <point x="496" y="27"/>
      <point x="474" y="49"/>
      <point x="453" y="119" type="curve" smooth="yes"/>
      <point x="311" y="593" type="line" smooth="yes"/>
      <point x="287" y="673"/>
      <point x="245" y="700"/>
      <point x="169" y="700" type="curve" smooth="yes"/>
      <point x="164" y="700" type="line"/>
      <point x="164" y="680" type="line"/>
      <point x="241" y="680"/>
      <point x="271" y="653"/>
      <point x="294" y="580" type="curve" smooth="yes"/>
      <point x="317" y="506" type="line"/>
      <point x="269" y="496"/>
      <point x="212" y="466"/>
      <point x="185" y="372" type="curve" smooth="yes"/>
      <point x="77" y="0" type="line"/>
      <point x="96" y="0" type="line"/>
      <point x="202" y="367" type="line" smooth="yes"/>
      <point x="223" y="440"/>
      <point x="266" y="478"/>
      <point x="322" y="489" type="curve"/>
      <point x="436" y="113" type="line" smooth="yes"/>
      <point x="455" y="49"/>
      <point x="478" y="15"/>
      <point x="527" y="-5" type="curve"/>
    </contour>
  </outline>
</glyph>
<glyph name="mu" format="1">
  <advance width="522"/>
  <unicode hex="03BC"/>
  <outline>
    <contour>
      <point x="97" y="65" type="line"/>
      <point x="144" y="14"/>
      <point x="198" y="-11"/>
      <point x="271" y="-11" type="curve" smooth="yes"/>
      <point x="341" y="-11"/>
      <point x="405" y="12"/>
      <point x="439" y="69" type="curve"/>
      <point x="439" y="31"/>
      <point x="453" y="11"/>
      <point x="470" y="-2" type="curve"/>
      <point x="481" y="13" type="line"/>
      <point x="466" y="23"/>
      <point x="458" y="39"/>
      <point x="458" y="64" type="curve" smooth="yes"/>
      <point x="458" y="510" type="line"/>
      <point x="439" y="506" type="line"/>
      <point x="439" y="136" type="line" smooth="yes"/>
      <point x="439" y="44"/>
      <point x="345" y="8"/>
      <point x="270" y="8" type="curve" smooth="yes"/>
      <point x="187" y="8"/>
      <point x="131" y="48"/>
      <point x="97" y="95" type="curve"/>
      <point x="97" y="501" type="line"/>
      <point x="78" y="501" type="line"/>
      <point x="78" y="-201" type="line"/>
      <point x="97" y="-203" type="line"/>
    </contour>
  </outline>
</glyph>
<glyph name="xi" format="1">
  <advance width="419"/>
  <unicode hex="03BE"/>
  <outline>
    <contour>
      <point x="380" y="-207" type="line"/>
      <point x="380" y="32" type="line"/>
      <point x="339" y="22"/>
      <point x="301" y="17"/>
      <point x="266" y="17" type="curve" smooth="yes"/>
      <point x="153" y="17"/>
      <point x="97" y="65"/>
      <point x="97" y="160" type="curve" smooth="yes"/>
      <point x="97" y="345" type="line" smooth="yes"/>
      <point x="97" y="440"/>
      <point x="154" y="495"/>
      <point x="257" y="495" type="curve" smooth="yes"/>
      <point x="290" y="495"/>
      <point x="323" y="489"/>
      <point x="351" y="478" type="curve"/>
      <point x="358" y="494" type="line"/>
      <point x="327" y="504"/>
      <point x="301" y="511"/>
      <point x="279" y="515" type="curve" smooth="yes"/>
      <point x="225" y="524"/>
      <point x="204" y="567"/>
      <point x="204" y="605" type="curve" smooth="yes"/>
      <point x="204" y="646"/>
      <point x="228" y="689"/>
      <point x="299" y="689" type="curve" smooth="yes"/>
      <point x="334" y="689" type="line"/>
      <point x="345" y="708" type="line"/>
      <point x="303" y="708" type="line" smooth="yes"/>
      <point x="220" y="708"/>
      <point x="183" y="662"/>
      <point x="183" y="605" type="curve" smooth="yes"/>
      <point x="183" y="568"/>
      <point x="199" y="536"/>
      <point x="233" y="513" type="curve"/>
      <point x="138" y="508"/>
      <point x="78" y="443"/>
      <point x="78" y="348" type="curve" smooth="yes"/>
      <point x="78" y="164" type="line" smooth="yes"/>
      <point x="78" y="53"/>
      <point x="140" y="-3"/>
      <point x="265" y="-3" type="curve" smooth="yes"/>
      <point x="294" y="-3"/>
      <point x="326" y="0"/>
      <point x="361" y="7" type="curve"/>
      <point x="361" y="-218" type="line"/>
    </contour>
  </outline>
</glyph>
<glyph name="pi" format="1">
  <advance width="530"/>
  <unicode hex="03C0"/>
  <outline>
    <contour>
      <point x="468" y="6" type="line"/>
      <point x="453" y="19"/>
      <point x="445" y="39"/>
      <point x="445" y="65" type="curve" smooth="yes"/>
      <point x="445" y="501" type="line"/>
      <point x="66" y="501" type="line"/>
      <point x="66" y="0" type="line"/>
      <point x="85" y="0" type="line"/>
      <point x="85" y="482" type="line"/>
      <point x="427" y="482" type="line"/>
      <point x="426" y="67" type="line" smooth="yes"/>
      <point x="426" y="32"/>
      <point x="436" y="7"/>
      <point x="456" y="-8" type="curve"/>
    </contour>
  </outline>
</glyph>
<glyph name="sigmafinal" format="1">
  <advance width="410"/>
  <unicode hex="03C2"/>
  <outline>
    <contour>
      <point x="365" y="-128"/>
      <point x="370" y="-112"/>
      <point x="370" y="-95" type="curve" smooth="yes"/>
      <point x="370" y="-59"/>
      <point x="350" y="-29"/>
      <point x="311" y="-6" type="curve" smooth="yes"/>
      <point x="150" y="89"/>
      <point x="97" y="135"/>
      <point x="97" y="227" type="curve" smooth="yes"/>
      <point x="97" y="314" type="line" smooth="yes"/>
      <point x="97" y="418"/>
      <point x="155" y="490"/>
      <point x="265" y="490" type="curve" smooth="yes"/>
      <point x="308" y="490"/>
      <point x="350" y="479"/>
      <point x="391" y="458" type="curve"/>
      <point x="398" y="478" type="line"/>
      <point x="353" y="499"/>
      <point x="308" y="510"/>
      <point x="264" y="510" type="curve" smooth="yes"/>
      <point x="143" y="510"/>
      <point x="78" y="430"/>
      <point x="78" y="308" type="curve" smooth="yes"/>
      <point x="78" y="227" type="line" smooth="yes"/>
      <point x="78" y="107"/>
      <point x="166" y="61"/>
      <point x="302" y="-22" type="curve" smooth="yes"/>
      <point x="336" y="-39"/>
      <point x="351" y="-64"/>
      <point x="351" y="-95" type="curve" smooth="yes"/>
      <point x="351" y="-111"/>
      <point x="347" y="-124"/>
      <point x="340" y="-136" type="curve"/>
      <point x="355" y="-146" type="line"/>
    </contour>
  </outline>
</glyph>
<glyph name="sigma" format="1">
  <advance width="510"/>
  <unicode hex="03C3"/>
  <outline>
    <contour>
      <point x="389" y="-19"/>
      <point x="451" y="46"/>
      <point x="451" y="175" type="curve" smooth="yes"/>
      <point x="451" y="310" type="line" smooth="yes"/>
      <point x="451" y="392"/>
      <point x="423" y="450"/>
      <point x="367" y="483" type="curve"/>
      <point x="401" y="483"/>
      <point x="447" y="504"/>
      <point x="472" y="533" type="curve"/>
      <point x="458" y="543" type="line"/>
      <point x="422" y="509"/>
      <point x="389" y="500"/>
      <point x="353" y="500" type="curve" smooth="yes"/>
      <point x="318" y="500"/>
      <point x="290" y="509"/>
      <point x="248" y="509" type="curve" smooth="yes"/>
      <point x="149" y="509"/>
      <point x="78" y="457"/>
      <point x="78" y="349" type="curve" smooth="yes"/>
      <point x="78" y="175" type="line" smooth="yes"/>
      <point x="78" y="54"/>
      <point x="139" y="-19"/>
      <point x="266" y="-19" type="curve" smooth="yes"/>
    </contour>
    <contour>
      <point x="159" y="0"/>
      <point x="97" y="55"/>
      <point x="97" y="174" type="curve" smooth="yes"/>
      <point x="97" y="346" type="line" smooth="yes"/>
      <point x="97" y="446"/>
      <point x="153" y="491"/>
      <point x="251" y="491" type="curve" smooth="yes"/>
      <point x="278" y="491"/>
      <point x="308" y="488"/>
      <point x="339" y="482" type="curve"/>
      <point x="403" y="447"/>
      <point x="434" y="388"/>
      <point x="434" y="310" type="curve" smooth="yes"/>
      <point x="434" y="174" type="line" smooth="yes"/>
      <point x="434" y="58"/>
      <point x="378" y="0"/>
      <point x="266" y="0" type="curve" smooth="yes"/>
    </contour>
  </outline>
</glyph>
<glyph name="chi" format="1">
  <advance width="547"/>
  <unicode hex="03C7"/>
  <outline>
    <contour>
      <point x="505" y="-197" type="line"/>
      <point x="462" y="-187"/>
      <point x="430" y="-166"/>
      <point x="401" y="-107" type="curve" smooth="yes"/>
      <point x="275" y="149" type="line"/>
      <point x="458" y="501" type="line"/>
      <point x="438" y="501" type="line"/>
      <point x="264" y="168" type="line"/>
      <point x="99" y="501" type="line"/>
      <point x="79" y="501" type="line"/>
      <point x="255" y="149" type="line"/>
      <point x="78" y="-191" type="line"/>
      <point x="95" y="-199" type="line"/>
      <point x="265" y="131" type="line"/>
      <point x="382" y="-107" type="line" smooth="yes"/>
      <point x="415" y="-173"/>
      <point x="445" y="-199"/>
      <point x="497" y="-210" type="curve"/>
    </contour>
  </outline>
</glyph>
<glyph name="psi" format="1">
  <advance width="645"/>
  <unicode hex="03C8"/>
  <outline>
    <contour>
      <point x="348" y="-5" type="line"/>
      <point x="417" y="-5" type="line" smooth="yes"/>
      <point x="544" y="-5"/>
      <point x="605" y="68"/>
      <point x="605" y="189" type="curve" smooth="yes"/>
      <point x="605" y="346" type="line" smooth="yes"/>
      <point x="605" y="408"/>
      <point x="605" y="472"/>
      <point x="549" y="507" type="curve"/>
      <point x="537" y="495" type="line"/>
      <point x="573" y="469"/>
      <point x="586" y="441"/>
      <point x="586" y="361" type="curve" smooth="yes"/>
      <point x="586" y="193" type="line" smooth="yes"/>
      <point x="586" y="74"/>
      <point x="530" y="14"/>
      <point x="417" y="14" type="curve" smooth="yes"/>
      <point x="348" y="14" type="line"/>
      <point x="348" y="500" type="line"/>
      <point x="329" y="500" type="line"/>
      <point x="329" y="14" type="line"/>
      <point x="266" y="14" type="line" smooth="yes"/>
      <point x="170" y="14"/>
      <point x="97" y="59"/>
      <point x="97" y="190" type="curve" smooth="yes"/>
      <point x="97" y="500" type="line"/>
      <point x="78" y="500" type="line"/>
      <point x="78" y="189" type="line" smooth="yes"/>
      <point x="78" y="68"/>
      <point x="139" y="-5"/>
      <point x="266" y="-5" type="curve" smooth="yes"/>
      <point x="329" y="-5" type="line"/>
      <point x="329" y="-213" type="line"/>
      <point x="348" y="-218" type="line"/>
    </contour>
  </outline>
</glyph>
<glyph name="omega" format="1">
  <advance width="676"/>
  <unicode hex="03C9"/>
  <outline>
    <contour>
      <point x="268" y="-12"/>
      <point x="315" y="11"/>
      <point x="332" y="51" type="curve"/>
      <point x="349" y="11"/>
      <point x="396" y="-12"/>
      <point x="437" y="-12" type="curve" smooth="yes"/>
      <point x="544" y="-12"/>
      <point x="598" y="55"/>
      <point x="598" y="188" type="curve" smooth="yes"/>
      <point x="598" y="317" type="line" smooth="yes"/>
      <point x="598" y="412"/>
      <point x="562" y="473"/>
      <point x="491" y="500" type="curve"/>
      <point x="477" y="481" type="line"/>
      <point x="537" y="470"/>
      <point x="579" y="406"/>
      <point x="579" y="317" type="curve" smooth="yes"/>
      <point x="579" y="181" type="line" smooth="yes"/>
      <point x="579" y="65"/>
      <point x="533" y="7"/>
      <point x="440" y="7" type="curve" smooth="yes"/>
      <point x="375" y="7"/>
      <point x="343" y="42"/>
      <point x="342" y="111" type="curve"/>
      <point x="342" y="299" type="line"/>
      <point x="323" y="299" type="line"/>
      <point x="323" y="111" type="line" smooth="yes"/>
      <point x="321" y="42"/>
      <point x="288" y="7"/>
      <point x="224" y="7" type="curve" smooth="yes"/>
      <point x="131" y="7"/>
      <point x="85" y="72"/>
      <point x="85" y="180" type="curve" smooth="yes"/>
      <point x="85" y="317" type="line" smooth="yes"/>
      <point x="85" y="404"/>
      <point x="127" y="470"/>
      <point x="184" y="482" type="curve"/>
      <point x="173" y="500" type="line"/>
      <point x="102" y="473"/>
      <point x="66" y="412"/>
      <point x="66" y="317" type="curve" smooth="yes"/>
      <point x="66" y="188" type="line" smooth="yes"/>
      <point x="66" y="55"/>
      <point x="120" y="-12"/>
      <point x="227" y="-12" type="curve" smooth="yes"/>
    </contour>
    <contour>
      <point x="333" y="501" type="move" name="top"/>
    </contour>
    <contour>
      <point x="333" y="0" type="move" name="bottom"/>
    </contour>
  </outline>
</glyph>
<glyph name="f_l" format="1">
  <advance width="424"/>
  <unicode hex="FB02"/>
  <outline>
    <contour>
      <point x="97" y="0" type="line"/>
      <point x="97" y="482" type="line"/>
      <point x="239" y="482" type="line"/>
      <point x="249" y="501" type="line"/>
      <point x="97" y="501" type="line"/>
      <point x="97" y="560" type="line" smooth="yes"/>
      <point x="97" y="632"/>
      <point x="149" y="688"/>
      <point x="223" y="688" type="curve" smooth="yes"/>
      <point x="260" y="688"/>
      <point x="295" y="674"/>
      <point x="325" y="647" type="curve"/>
      <point x="325" y="0" type="line"/>
      <point x="344" y="0" type="line"/>
      <point x="344" y="656" type="line"/>
      <point x="308" y="690"/>
      <point x="265" y="706"/>
      <point x="222" y="706" type="curve" smooth="yes"/>
      <point x="142" y="706"/>
      <point x="78" y="648"/>
      <point x="78" y="560" type="curve" smooth="yes"/>
      <point x="78" y="0" type="line"/>
    </contour>
  </outline>
</glyph>
<glyph name="Y.ss01" format="1">
  <advance width="560"/>
  <outline>
    <contour>
      <point x="293" y="0" type="line"/>
      <point x="293" y="342" type="line"/>
      <point x="521" y="700" type="line"/>
      <point x="498" y="700" type="line"/>
      <point x="284" y="362" type="line"/>
      <point x="72" y="700" type="line"/>
      <point x="49" y="700" type="line"/>
      <point x="275" y="342" type="line"/>
      <point x="275" y="0" type="line"/>
    </contour>
    <contour>
      <point x="284" y="694" type="move" name="top"/>
    </contour>
    <contour>
      <point x="284" y="0" type="move" name="bottom"/>
    </contour>
    <contour>
      <point x="20" y="694" type="move" name="topleft"/>
    </contour>
  </outline>
</glyph>
<glyph name="caroncomb.alt" format="1">
  <advance width="109"/>
  <outline>
    <contour>
      <point x="69" y="700" type="line"/>
      <point x="51" y="702" type="line"/>
      <point x="40" y="554" type="line"/>
      <point x="58" y="553" type="line"/>
    </contour>
    <contour>
      <point x="48" y="694" type="move" name="_topright"/>
    </contour>
  </outline>
</glyph>
<glyph name="gamma_gamma" format="1">
  <advance width="893"/>
  <outline>
    <contour>
      <point x="821" y="486"/>
      <point x="798" y="452"/>
      <point x="779" y="388" type="curve" smooth="yes"/>
      <point x="665" y="12" type="line"/>
      <point x="609" y="23"/>
      <point x="564" y="61"/>
      <point x="545" y="134" type="curve" smooth="yes"/>
      <point x="450" y="495" type="line"/>
      <point x="438" y="505" type="line"/>
      <point x="411" y="478"/>
      <point x="395" y="445"/>
      <point x="379" y="392" type="curve" smooth="yes"/>
      <point x="266" y="12" type="line"/>
      <point x="210" y="23"/>
      <point x="167" y="61"/>
      <point x="146" y="134" type="curve" smooth="yes"/>
      <point x="40" y="501" type="line"/>
      <point x="21" y="501" type="line"/>
      <point x="129" y="129" type="line" smooth="yes"/>
      <point x="156" y="35"/>
      <point x="213" y="5"/>
      <point x="261" y="-5" type="curve"/>
      <point x="239" y="-78" type="line" smooth="yes"/>
      <point x="233" y="-97"/>
      <point x="227" y="-119"/>
      <point x="227" y="-139" type="curve" smooth="yes"/>
      <point x="227" y="-158"/>
      <point x="234" y="-176"/>
      <point x="249" y="-192" type="curve"/>
      <point x="264" y="-180" type="line"/>
      <point x="254" y="-167"/>
      <point x="249" y="-152"/>
      <point x="249" y="-135" type="curve" smooth="yes"/>
      <point x="249" y="-118"/>
      <point x="254" y="-99"/>
      <point x="260" y="-78" type="curve" smooth="yes"/>
      <point x="395" y="387" type="line" smooth="yes"/>
      <point x="408" y="432"/>
      <point x="420" y="459"/>
      <point x="436" y="478" type="curve"/>
      <point x="528" y="129" type="line" smooth="yes"/>
      <point x="553" y="35"/>
      <point x="612" y="5"/>
      <point x="660" y="-5" type="curve"/>
      <point x="638" y="-78" type="line" smooth="yes"/>
      <point x="632" y="-97"/>
      <point x="626" y="-119"/>
      <point x="626" y="-139" type="curve" smooth="yes"/>
      <point x="626" y="-158"/>
      <point x="633" y="-176"/>
      <point x="648" y="-192" type="curve"/>
      <point x="663" y="-180" type="line"/>
      <point x="653" y="-167"/>
      <point x="648" y="-152"/>
      <point x="648" y="-135" type="curve" smooth="yes"/>
      <point x="648" y="-118"/>
      <point x="653" y="-99"/>
      <point x="659" y="-78" type="curve" smooth="yes"/>
      <point x="796" y="382" type="line" smooth="yes"/>
      <point x="817" y="452"/>
      <point x="839" y="474"/>
      <point x="877" y="491" type="curve"/>
      <point x="870" y="506" type="line"/>
    </contour>
  </outline>
</glyph>
<glyph name="gamma_kappa" format="1">
  <advance width="919"/>
  <outline>
    <contour>
      <point x="322" y="-180" type="line"/>
      <point x="312" y="-167"/>
      <point x="307" y="-152"/>
      <point x="307" y="-135" type="curve" smooth="yes"/>
      <point x="307" y="-118"/>
      <point x="312" y="-99"/>
      <point x="318" y="-78" type="curve" smooth="yes"/>
      <point x="455" y="382" type="line" smooth="yes"/>
      <point x="471" y="440"/>
      <point x="488" y="469"/>
      <point x="511" y="487" type="curve"/>
      <point x="511" y="0" type="line"/>
      <point x="530" y="0" type="line"/>
      <point x="530" y="179" type="line"/>
      <point x="624" y="278" type="line"/>
      <point x="753" y="98" type="line" smooth="yes"/>
      <point x="800" y="32"/>
      <point x="843" y="-1"/>
      <point x="880" y="-1" type="curve"/>
      <point x="880" y="19" type="line"/>
      <point x="849" y="19"/>
      <point x="811" y="50"/>
      <point x="764" y="113" type="curve" smooth="yes"/>
      <point x="637" y="292" type="line"/>
      <point x="829" y="501" type="line"/>
      <point x="802" y="501" type="line"/>
      <point x="530" y="205" type="line"/>
      <point x="530" y="499" type="line"/>
      <point x="511" y="507" type="line"/>
      <point x="474" y="485"/>
      <point x="456" y="449"/>
      <point x="438" y="388" type="curve" smooth="yes"/>
      <point x="324" y="12" type="line"/>
      <point x="268" y="23"/>
      <point x="225" y="61"/>
      <point x="204" y="134" type="curve" smooth="yes"/>
      <point x="98" y="501" type="line"/>
      <point x="79" y="501" type="line"/>
      <point x="187" y="129" type="line" smooth="yes"/>
      <point x="214" y="35"/>
      <point x="271" y="5"/>
      <point x="319" y="-5" type="curve"/>
      <point x="297" y="-78" type="line" smooth="yes"/>
      <point x="291" y="-97"/>
      <point x="285" y="-119"/>
      <point x="285" y="-139" type="curve" smooth="yes"/>
      <point x="285" y="-158"/>
      <point x="292" y="-176"/>
      <point x="307" y="-192" type="curve"/>
    </contour>
  </outline>
</glyph>
<glyph name="lambda_lambda" format="1">
  <advance width="993"/>
  <outline>
    <contour>
      <point x="721" y="593" type="line" smooth="yes"/>
      <point x="697" y="673"/>
      <point x="655" y="700"/>
      <point x="579" y="700" type="curve" smooth="yes"/>
      <point x="574" y="700" type="line"/>
      <point x="574" y="680" type="line"/>
      <point x="651" y="680"/>
      <point x="681" y="653"/>
      <point x="704" y="580" type="curve" smooth="yes"/>
      <point x="727" y="506" type="line"/>
      <point x="679" y="496"/>
      <point x="622" y="466"/>
      <point x="595" y="372" type="curve" smooth="yes"/>
      <point x="493" y="21" type="line"/>
      <point x="477" y="37"/>
      <point x="468" y="61"/>
      <point x="456" y="101" type="curve" smooth="yes"/>
      <point x="311" y="593" type="line" smooth="yes"/>
      <point x="287" y="673"/>
      <point x="245" y="700"/>
      <point x="169" y="700" type="curve" smooth="yes"/>
      <point x="164" y="700" type="line"/>
      <point x="164" y="680" type="line"/>
      <point x="241" y="680"/>
      <point x="271" y="653"/>
      <point x="294" y="580" type="curve" smooth="yes"/>
      <point x="317" y="506" type="line"/>
      <point x="269" y="496"/>
      <point x="212" y="466"/>
      <point x="185" y="372" type="curve" smooth="yes"/>
      <point x="77" y="0" type="line"/>
      <point x="96" y="0" type="line"/>
      <point x="202" y="367" type="line" smooth="yes"/>
      <point x="223" y="440"/>
      <point x="266" y="478"/>
      <point x="322" y="489" type="curve"/>
      <point x="440" y="95" type="line" smooth="yes"/>
      <point x="453" y="50"/>
      <point x="465" y="15"/>
      <point x="499" y="-5" type="curve"/>
      <point x="506" y="0" type="line"/>
      <point x="612" y="367" type="line" smooth="yes"/>
      <point x="633" y="440"/>
      <point x="676" y="478"/>
      <point x="732" y="489" type="curve"/>
      <point x="846" y="113" type="line" smooth="yes"/>
      <point x="865" y="49"/>
      <point x="888" y="15"/>
      <point x="937" y="-5" type="curve"/>
      <point x="944" y="10" type="line"/>
      <point x="906" y="27"/>
      <point x="884" y="49"/>
      <point x="863" y="119" type="curve" smooth="yes"/>
    </contour>
  </outline>
</glyph>
<glyph name="sigma_tau" format="1">
  <advance width="826"/>
  <outline>
    <contour>
      <point x="389" y="-19"/>
      <point x="451" y="46"/>
      <point x="451" y="175" type="curve" smooth="yes"/>
      <point x="451" y="310" type="line" smooth="yes"/>
      <point x="451" y="392"/>
      <point x="423" y="450"/>
      <point x="367" y="483" type="curve"/>
      <point x="398" y="483"/>
      <point x="439" y="499"/>
      <point x="466" y="522" type="curve"/>
      <point x="463" y="543" type="line"/>
      <point x="425" y="509"/>
      <point x="391" y="500"/>
      <point x="354" y="500" type="curve" smooth="yes"/>
      <point x="318" y="500"/>
      <point x="290" y="509"/>
      <point x="248" y="509" type="curve" smooth="yes"/>
      <point x="149" y="509"/>
      <point x="78" y="457"/>
      <point x="78" y="349" type="curve" smooth="yes"/>
      <point x="78" y="175" type="line" smooth="yes"/>
      <point x="78" y="54"/>
      <point x="139" y="-19"/>
      <point x="266" y="-19" type="curve" smooth="yes"/>
    </contour>
    <contour>
      <point x="159" y="0"/>
      <point x="97" y="55"/>
      <point x="97" y="174" type="curve" smooth="yes"/>
      <point x="97" y="346" type="line" smooth="yes"/>
      <point x="97" y="446"/>
      <point x="153" y="491"/>
      <point x="251" y="491" type="curve" smooth="yes"/>
      <point x="278" y="491"/>
      <point x="308" y="488"/>
      <point x="339" y="482" type="curve"/>
      <point x="403" y="447"/>
      <point x="434" y="388"/>
      <point x="434" y="310" type="curve" smooth="yes"/>
      <point x="434" y="174" type="line" smooth="yes"/>
      <point x="434" y="58"/>
      <point x="378" y="0"/>
      <point x="266" y="0" type="curve" smooth="yes"/>
    </contour>
    <contour>
      <point x="718" y="4" type="line"/>
      <point x="676" y="19"/>
      <point x="644" y="57"/>
      <point x="644" y="132" type="curve" smooth="yes"/>
      <point x="644" y="481" type="line"/>
      <point x="787" y="481" type="line"/>
      <point x="787" y="501" type="line"/>
      <point x="543" y="501" type="line" smooth="yes"/>
      <point x="504" y="501"/>
      <point x="484" y="513"/>
      <point x="463" y="543" type="curve"/>
      <point x="447" y="528" type="line"/>
      <point x="474" y="497"/>
      <point x="503" y="481"/>
      <point x="545" y="481" type="curve" smooth="yes"/>
      <point x="625" y="481" type="line"/>
      <point x="625" y="132" type="line" smooth="yes"/>
      <point x="625" y="53"/>
      <point x="659" y="7"/>
      <point x="712" y="-12" type="curve"/>
    </contour>
  </outline>
</glyph>
<glyph name="slashlongcomb.case" format="1">
  <advance width="424"/>
  <outline>
    <contour>
      <point x="60" y="-114" type="line"/>
      <point x="384" y="817" type="line"/>
      <point x="364" y="817" type="line"/>
      <point x="40" y="-114" type="line"/>
    </contour>
    <contour>
      <point x="212" y="352" type="move" name="_center"/>
    </contour>
  </outline>
</glyph>
<glyph name="t_t" format="1">
  <advance width="477"/>
  <outline>
    <contour>
      <point x="156" y="5" type="line"/>
      <point x="89" y="26"/>
      <point x="63" y="59"/>
      <point x="63" y="132" type="curve" smooth="yes"/>
      <point x="63" y="482" type="line"/>
      <point x="278" y="482" type="line"/>
      <point x="278" y="132" type="line" smooth="yes"/>
      <point x="278" y="53"/>
      <point x="309" y="8"/>
      <point x="384" y="-13" type="curve"/>
      <point x="390" y="5" type="line"/>
      <point x="323" y="26"/>
      <point x="297" y="59"/>
      <point x="297" y="132" type="curve" smooth="yes"/>
      <point x="297" y="482" type="line"/>
      <point x="445" y="482" type="line"/>
      <point x="454" y="501" type="line"/>
      <point x="297" y="501" type="line"/>
      <point x="297" y="700" type="line"/>
      <point x="278" y="700" type="line"/>
      <point x="278" y="501" type="line"/>
      <point x="63" y="501" type="line"/>
      <point x="63" y="700" type="line"/>
      <point x="44" y="700" type="line"/>
      <point x="44" y="132" type="line" smooth="yes"/>
      <point x="44" y="53"/>
      <point x="75" y="8"/>
      <point x="150" y="-13" type="curve"/>
    </contour>
  </outline>
</glyph>
